<svg width="1056" height="884" viewBox="0 0 1056 884" fill="currentColor" xmlns="http://www.w3.org/2000/svg">
    <mask id="mask0_633_2080" style="mask-type:alpha" maskUnits="userSpaceOnUse" x="40" y="41" width="1056"
          height="966">
        <rect x="855.34" y="392.072" width="1015.784" height="1062.814" transform="rotate(120.128 1055.34 392.072)"
              fill="url(#paint0_linear_633_2080)" />
    </mask>
    <g mask="url(#mask0_633_2080)">
        <path d="M450.232 591.491C320.134 515.992 270.099 359.236 338.485 241.396C345.657 229.037 353.873 217.553 362.943 207.036C323.616 318.61 375.91 451.255 492.388 518.85C608.866 586.446 749.928 566.01 827.341 476.539C822.71 489.631 816.815 502.462 809.643 514.821C741.257 632.661 580.33 666.991 450.232 591.491Z"
              />
        <g filter="url(#filter0_f_633_2080)">
            <path d="M454.916 583.42C324.818 507.921 270.099 359.235 338.485 241.396C345.657 229.037 353.873 217.553 362.943 207.036C323.616 318.61 371.226 459.326 487.704 526.922C604.182 594.517 749.928 566.01 827.341 476.539C822.71 489.631 816.815 502.462 809.643 514.821C741.257 632.661 585.014 658.92 454.916 583.42Z"
                  />
        </g>
        <g filter="url(#filter1_f_633_2080)">
            <path d="M457.259 579.385C327.161 503.885 270.749 348.822 339.135 230.982C346.307 218.623 354.522 207.139 363.592 196.623C324.266 308.197 368.885 463.362 485.363 530.957C601.841 598.552 755.573 555.124 832.985 465.653C828.355 478.745 822.46 491.576 815.287 503.935C746.902 621.775 587.357 654.884 457.259 579.385Z"
                  />
        </g>
        <g filter="url(#filter2_f_633_2080)">
            <path d="M457.259 579.385C327.161 503.885 270.749 348.822 339.135 230.982C346.307 218.623 354.522 207.139 363.592 196.623C324.266 308.197 368.885 463.362 485.363 530.957C601.841 598.552 755.573 555.124 832.985 465.653C828.355 478.745 822.46 491.576 815.287 503.935C746.902 621.775 587.357 654.884 457.259 579.385Z"
                  />
        </g>
        <g filter="url(#filter3_f_633_2080)">
            <path d="M457.259 579.385C327.161 503.885 270.749 348.822 339.135 230.982C346.307 218.623 354.522 207.139 363.592 196.623C324.266 308.197 368.885 463.362 485.363 530.957C601.841 598.552 755.573 555.124 832.985 465.653C828.355 478.745 822.46 491.576 815.287 503.935C746.902 621.775 587.357 654.884 457.259 579.385Z"
                  />
        </g>
        <g filter="url(#filter4_f_633_2080)">
            <path d="M461.817 552.358C331.719 476.859 270.749 348.822 339.135 230.982C346.307 218.623 354.522 207.139 363.592 196.623C324.266 308.197 357.984 474.569 477.752 544.073C627.815 631.159 755.573 555.124 832.985 465.653C828.355 478.745 822.46 491.576 815.287 503.935C746.902 621.775 591.915 627.858 461.817 552.358Z"
                  />
        </g>
        <g filter="url(#filter5_f_633_2080)">
            <path d="M461.815 552.358C331.717 476.859 243.991 352.514 312.377 234.674C319.549 222.315 372.095 198.119 381.165 187.603C341.838 299.177 357.982 474.568 477.749 544.073C627.813 631.158 749.435 535.716 826.848 446.245C815.094 439.424 851.101 486.956 843.928 499.315C775.543 617.155 591.913 627.857 461.815 552.358Z"
                  />
        </g>
        <g filter="url(#filter6_f_633_2080)">
            <path d="M461.815 552.358C331.717 476.859 243.991 352.514 312.377 234.674C319.549 222.315 372.095 198.119 381.165 187.603C341.838 299.177 357.982 474.568 477.749 544.073C627.813 631.158 749.435 535.716 826.848 446.245C815.094 439.424 851.101 486.956 843.928 499.315C775.543 617.155 591.913 627.857 461.815 552.358Z"
                  />
        </g>
        <g filter="url(#filter7_f_633_2080)">
            <path d="M461.815 552.358C331.717 476.859 243.991 352.514 312.377 234.674C319.549 222.315 372.095 198.119 381.165 187.603C341.838 299.177 357.982 474.568 477.749 544.073C627.813 631.158 749.435 535.716 826.848 446.245C815.094 439.424 851.101 486.956 843.928 499.315C775.543 617.155 591.913 627.857 461.815 552.358Z"
                  />
        </g>
    </g>
    <defs>
        <filter id="filter0_f_633_2080" x="296.877" y="195.036" width="542.465" height="442.931"
                filterUnits="userSpaceOnUse" color-interpolation-filters="sRGB">
            <feFlood flood-opacity="0" result="BackgroundImageFix"/>
            <feBlend mode="normal" in="SourceGraphic" in2="BackgroundImageFix" result="shape"/>
            <feGaussianBlur stdDeviation="6" result="effect1_foregroundBlur_633_2080"/>
        </filter>
        <filter id="filter1_f_633_2080" x="273.879" y="160.623" width="595.107" height="495.189"
                filterUnits="userSpaceOnUse" color-interpolation-filters="sRGB">
            <feFlood flood-opacity="0" result="BackgroundImageFix"/>
            <feBlend mode="normal" in="SourceGraphic" in2="BackgroundImageFix" result="shape"/>
            <feGaussianBlur stdDeviation="18" result="effect1_foregroundBlur_633_2080"/>
        </filter>
        <filter id="filter2_f_633_2080" x="257.879" y="144.623" width="627.107" height="527.189"
                filterUnits="userSpaceOnUse" color-interpolation-filters="sRGB">
            <feFlood flood-opacity="0" result="BackgroundImageFix"/>
            <feBlend mode="normal" in="SourceGraphic" in2="BackgroundImageFix" result="shape"/>
            <feGaussianBlur stdDeviation="26" result="effect1_foregroundBlur_633_2080"/>
        </filter>
        <filter id="filter3_f_633_2080" x="257.879" y="144.623" width="627.107" height="527.189"
                filterUnits="userSpaceOnUse" color-interpolation-filters="sRGB">
            <feFlood flood-opacity="0" result="BackgroundImageFix"/>
            <feBlend mode="normal" in="SourceGraphic" in2="BackgroundImageFix" result="shape"/>
            <feGaussianBlur stdDeviation="26" result="effect1_foregroundBlur_633_2080"/>
        </filter>
        <filter id="filter4_f_633_2080" x="186.791" y="72.6233" width="770.195" height="653.477"
                filterUnits="userSpaceOnUse" color-interpolation-filters="sRGB">
            <feFlood flood-opacity="0" result="BackgroundImageFix"/>
            <feBlend mode="normal" in="SourceGraphic" in2="BackgroundImageFix" result="shape"/>
            <feGaussianBlur stdDeviation="62" result="effect1_foregroundBlur_633_2080"/>
        </filter>
        <filter id="filter5_f_633_2080" x="212.543" y="111.603" width="708.34" height="564.718"
                filterUnits="userSpaceOnUse" color-interpolation-filters="sRGB">
            <feFlood flood-opacity="0" result="BackgroundImageFix"/>
            <feBlend mode="normal" in="SourceGraphic" in2="BackgroundImageFix" result="shape"/>
            <feGaussianBlur stdDeviation="38" result="effect1_foregroundBlur_633_2080"/>
        </filter>
        <filter id="filter6_f_633_2080" x="124.543" y="23.6033" width="884.34" height="740.718"
                filterUnits="userSpaceOnUse" color-interpolation-filters="sRGB">
            <feFlood flood-opacity="0" result="BackgroundImageFix"/>
            <feBlend mode="normal" in="SourceGraphic" in2="BackgroundImageFix" result="shape"/>
            <feGaussianBlur stdDeviation="82" result="effect1_foregroundBlur_633_2080"/>
        </filter>
        <filter id="filter7_f_633_2080" x="44.543" y="-56.3967" width="1044.34" height="900.718"
                filterUnits="userSpaceOnUse" color-interpolation-filters="sRGB">
            <feFlood flood-opacity="0" result="BackgroundImageFix"/>
            <feBlend mode="normal" in="SourceGraphic" in2="BackgroundImageFix" result="shape"/>
            <feGaussianBlur stdDeviation="122" result="effect1_foregroundBlur_633_2080"/>
        </filter>
        <linearGradient id="paint0_linear_633_2080" x1="1363.23" y1="392.072" x2="863.23" y2="954.89"
                        gradientUnits="userSpaceOnUse">
            <stop stop-color="#C4C4C4" stop-opacity="0"/>
            <stop offset="0.38" stop-color="currentColor"/>
            <stop offset="0.57" stop-color="currentColor"/>
            <stop offset="1" stop-color="currentColor" stop-opacity="0"/>
        </linearGradient>
    </defs>
</svg>
