<svg xmlns="http://www.w3.org/2000/svg">
    <symbol id="telegram" width="32" height="32" viewBox="0 0 32 32" fill="none" xmlns="http://www.w3.org/2000/svg">
        <path d="M16.0364 0H15.9636C7.14712 0 0 7.14712 0 15.9636V16.0364C0 24.8529 7.14712 32 15.9636 32H16.0364C24.8529 32 32 24.8529 32 16.0364V15.9636C32 7.14712 24.8529 0 16.0364 0Z" fill="white"/>
        <path d="M7.42036 15.9153C7.4571 15.897 7.49386 15.8795 7.52969 15.863C8.15249 15.5745 8.78356 15.3045 9.41372 15.0344C9.44771 15.0344 9.50465 14.9949 9.5368 14.982C9.58548 14.9609 9.63418 14.9407 9.68286 14.9196C9.77656 14.8792 9.87026 14.8397 9.96304 14.7992C10.1504 14.7193 10.3369 14.6394 10.5243 14.5595L11.6459 14.0791C12.3936 13.7594 13.1423 13.4388 13.89 13.1191C14.6378 12.7995 15.3864 12.4789 16.1341 12.1592C16.8819 11.8395 17.6305 11.5189 18.3782 11.1993C19.126 10.8796 19.8747 10.559 20.6224 10.2393C20.7887 10.1677 20.9687 10.0611 21.1469 10.0299C21.2966 10.0033 21.4427 9.95183 21.5933 9.92335C21.879 9.86916 22.1941 9.84711 22.4678 9.9656C22.5624 10.0069 22.6497 10.0648 22.7223 10.1374C23.0695 10.4809 23.0208 11.045 22.9473 11.5281C22.4357 14.8957 21.924 18.2642 21.4114 21.6317C21.3416 22.0938 21.2461 22.6008 20.8814 22.893C20.5728 23.1401 20.1337 23.1676 19.7525 23.0629C19.3712 22.9573 19.035 22.7359 18.7053 22.5182C17.3375 21.6124 15.9688 20.7067 14.601 19.801C14.2758 19.586 13.9139 19.3049 13.9176 18.9145C13.9194 18.6794 14.06 18.4699 14.2033 18.2835C15.3919 16.7329 17.1069 15.6673 18.3828 14.1884C18.5629 13.9799 18.7044 13.6032 18.4573 13.4829C18.3103 13.4112 18.1412 13.5086 18.0071 13.6014C16.3206 14.7726 14.635 15.9447 12.9485 17.1159C12.3982 17.4981 11.8213 17.8912 11.1581 17.9849C10.5647 18.0694 9.96763 17.9041 9.39351 17.7351C8.91217 17.5936 8.43173 17.4485 7.95314 17.2987C7.69869 17.2197 7.43597 17.1343 7.2394 16.9552C7.04282 16.776 6.92985 16.4748 7.04834 16.2359C7.12275 16.0862 7.26697 15.9916 7.41854 15.9144L7.42036 15.9153Z" fill="black"/>
    </symbol>
    <symbol id="whatsapp" width="32" height="32" viewBox="0 0 32 32" fill="none" xmlns="http://www.w3.org/2000/svg">
        <path d="M16.0364 0H15.9636C7.14713 0 0 7.14712 0 15.9636V16.0364C0 24.8529 7.14713 32 15.9636 32H16.0364C24.8529 32 32 24.8529 32 16.0364V15.9636C32 7.14712 24.8529 0 16.0364 0Z" fill="white"/>
        <path d="M18.3955 19.3299C15.252 19.3299 12.6945 16.7715 12.6936 13.6279C12.6945 12.8311 13.3433 12.1831 14.1385 12.1831C14.2202 12.1831 14.3011 12.19 14.3785 12.2037C14.5489 12.2321 14.7107 12.2898 14.8596 12.3767C14.8811 12.3896 14.8957 12.4103 14.8992 12.4344L15.2313 14.528C15.2356 14.5521 15.2279 14.5771 15.2115 14.5952C15.0282 14.7983 14.7942 14.9446 14.5334 15.0177L14.4078 15.053L14.4551 15.1743C14.8837 16.2655 15.7563 17.1372 16.8483 17.5675L16.9696 17.6157L17.0049 17.49C17.078 17.2293 17.2243 16.9952 17.4274 16.8119C17.4421 16.7982 17.4618 16.7913 17.4816 16.7913C17.4859 16.7913 17.4903 16.7913 17.4954 16.7921L19.5891 17.1243C19.6141 17.1286 19.6347 17.1424 19.6476 17.1639C19.7337 17.3128 19.7913 17.4754 19.8206 17.6458C19.8344 17.7215 19.8404 17.8015 19.8404 17.885C19.8404 18.681 19.1924 19.329 18.3955 19.3299Z" fill="black"/>
        <path d="M23.9699 15.0478C23.8004 13.1323 22.9226 11.3552 21.4984 10.0446C20.0656 8.7263 18.2069 8 16.2629 8C11.9963 8 8.52494 11.4714 8.52494 15.738C8.52494 17.1699 8.91992 18.5648 9.66772 19.7799L8 23.4716L13.3396 22.9028C14.2682 23.2832 15.2509 23.4759 16.262 23.4759C16.5279 23.4759 16.8007 23.4622 17.0744 23.4338C17.3153 23.4079 17.5589 23.3701 17.7981 23.3219C21.3711 22.5999 23.9793 19.4288 24 15.7793V15.738C24 15.5056 23.9897 15.2733 23.969 15.0487L23.9699 15.0478ZM13.5453 21.2824L10.5911 21.5974L11.4731 19.6431L11.2967 19.4064C11.2838 19.3892 11.2709 19.372 11.2563 19.3522C10.4904 18.2946 10.0859 17.0451 10.0859 15.7388C10.0859 12.3328 12.8569 9.56188 16.2629 9.56188C19.4538 9.56188 22.1584 12.0514 22.4192 15.2294C22.433 15.3998 22.4407 15.571 22.4407 15.7397C22.4407 15.7879 22.4398 15.8352 22.439 15.886C22.3736 18.7352 20.3832 21.1551 17.5985 21.7712C17.3859 21.8185 17.1682 21.8547 16.9513 21.8779C16.7259 21.9037 16.4944 21.9166 16.2646 21.9166C15.4462 21.9166 14.6511 21.7583 13.8999 21.4451C13.8164 21.4115 13.7346 21.3754 13.658 21.3384L13.5462 21.2841L13.5453 21.2824Z" fill="black"/>
    </symbol>
    <symbol id="lightning" width="32" height="32" viewBox="0 0 32 32" fill="none">
        <path d="M26.975 14.775C26.9379 14.6138 26.8614 14.4643 26.7523 14.34C26.6432 14.2157 26.505 14.1203 26.35 14.0625L19.15 11.3625L20.975 2.2C21.017 1.98776 20.9899 1.76766 20.8977 1.57195C20.8054 1.37625 20.6529 1.21523 20.4625 1.1125C20.2702 1.01022 20.0495 0.97437 19.8348 1.01054C19.62 1.04671 19.4232 1.15287 19.275 1.3125L5.27503 16.3125C5.16031 16.4315 5.07731 16.5774 5.03363 16.7369C4.98995 16.8963 4.987 17.0641 5.02503 17.225C5.06416 17.3853 5.14142 17.5338 5.25023 17.6578C5.35904 17.7819 5.49619 17.8778 5.65003 17.9375L12.85 20.6375L11.025 29.8C10.9831 30.0122 11.0102 30.2323 11.1024 30.428C11.1946 30.6238 11.3471 30.7848 11.5375 30.8875C11.6811 30.9599 11.8393 30.9984 12 31C12.1359 31.0006 12.2704 30.9731 12.3951 30.9194C12.5199 30.8656 12.6322 30.7867 12.725 30.6875L26.725 15.6875C26.8397 15.5685 26.9227 15.4226 26.9664 15.2631C27.0101 15.1037 27.0131 14.9359 26.975 14.775Z" fill="black"/>
    </symbol>
</svg>
