<svg xmlns="http://www.w3.org/2000/svg">
    <symbol id="telegram" width="32" height="32" viewBox="0 0 32 32" fill="none" xmlns="http://www.w3.org/2000/svg">
        <path d="M16.0364 0H15.9636C7.14712 0 0 7.14712 0 15.9636V16.0364C0 24.8529 7.14712 32 15.9636 32H16.0364C24.8529 32 32 24.8529 32 16.0364V15.9636C32 7.14712 24.8529 0 16.0364 0Z" fill="white"/>
        <path d="M7.42036 15.9153C7.4571 15.897 7.49386 15.8795 7.52969 15.863C8.15249 15.5745 8.78356 15.3045 9.41372 15.0344C9.44771 15.0344 9.50465 14.9949 9.5368 14.982C9.58548 14.9609 9.63418 14.9407 9.68286 14.9196C9.77656 14.8792 9.87026 14.8397 9.96304 14.7992C10.1504 14.7193 10.3369 14.6394 10.5243 14.5595L11.6459 14.0791C12.3936 13.7594 13.1423 13.4388 13.89 13.1191C14.6378 12.7995 15.3864 12.4789 16.1341 12.1592C16.8819 11.8395 17.6305 11.5189 18.3782 11.1993C19.126 10.8796 19.8747 10.559 20.6224 10.2393C20.7887 10.1677 20.9687 10.0611 21.1469 10.0299C21.2966 10.0033 21.4427 9.95183 21.5933 9.92335C21.879 9.86916 22.1941 9.84711 22.4678 9.9656C22.5624 10.0069 22.6497 10.0648 22.7223 10.1374C23.0695 10.4809 23.0208 11.045 22.9473 11.5281C22.4357 14.8957 21.924 18.2642 21.4114 21.6317C21.3416 22.0938 21.2461 22.6008 20.8814 22.893C20.5728 23.1401 20.1337 23.1676 19.7525 23.0629C19.3712 22.9573 19.035 22.7359 18.7053 22.5182C17.3375 21.6124 15.9688 20.7067 14.601 19.801C14.2758 19.586 13.9139 19.3049 13.9176 18.9145C13.9194 18.6794 14.06 18.4699 14.2033 18.2835C15.3919 16.7329 17.1069 15.6673 18.3828 14.1884C18.5629 13.9799 18.7044 13.6032 18.4573 13.4829C18.3103 13.4112 18.1412 13.5086 18.0071 13.6014C16.3206 14.7726 14.635 15.9447 12.9485 17.1159C12.3982 17.4981 11.8213 17.8912 11.1581 17.9849C10.5647 18.0694 9.96763 17.9041 9.39351 17.7351C8.91217 17.5936 8.43173 17.4485 7.95314 17.2987C7.69869 17.2197 7.43597 17.1343 7.2394 16.9552C7.04282 16.776 6.92985 16.4748 7.04834 16.2359C7.12275 16.0862 7.26697 15.9916 7.41854 15.9144L7.42036 15.9153Z" fill="black"/>
    </symbol>
    <symbol id="whatsapp" width="32" height="32" viewBox="0 0 32 32" fill="none" xmlns="http://www.w3.org/2000/svg">
        <path d="M16.0364 0H15.9636C7.14713 0 0 7.14712 0 15.9636V16.0364C0 24.8529 7.14713 32 15.9636 32H16.0364C24.8529 32 32 24.8529 32 16.0364V15.9636C32 7.14712 24.8529 0 16.0364 0Z" fill="white"/>
        <path d="M18.3955 19.3299C15.252 19.3299 12.6945 16.7715 12.6936 13.6279C12.6945 12.8311 13.3433 12.1831 14.1385 12.1831C14.2202 12.1831 14.3011 12.19 14.3785 12.2037C14.5489 12.2321 14.7107 12.2898 14.8596 12.3767C14.8811 12.3896 14.8957 12.4103 14.8992 12.4344L15.2313 14.528C15.2356 14.5521 15.2279 14.5771 15.2115 14.5952C15.0282 14.7983 14.7942 14.9446 14.5334 15.0177L14.4078 15.053L14.4551 15.1743C14.8837 16.2655 15.7563 17.1372 16.8483 17.5675L16.9696 17.6157L17.0049 17.49C17.078 17.2293 17.2243 16.9952 17.4274 16.8119C17.4421 16.7982 17.4618 16.7913 17.4816 16.7913C17.4859 16.7913 17.4903 16.7913 17.4954 16.7921L19.5891 17.1243C19.6141 17.1286 19.6347 17.1424 19.6476 17.1639C19.7337 17.3128 19.7913 17.4754 19.8206 17.6458C19.8344 17.7215 19.8404 17.8015 19.8404 17.885C19.8404 18.681 19.1924 19.329 18.3955 19.3299Z" fill="black"/>
        <path d="M23.9699 15.0478C23.8004 13.1323 22.9226 11.3552 21.4984 10.0446C20.0656 8.7263 18.2069 8 16.2629 8C11.9963 8 8.52494 11.4714 8.52494 15.738C8.52494 17.1699 8.91992 18.5648 9.66772 19.7799L8 23.4716L13.3396 22.9028C14.2682 23.2832 15.2509 23.4759 16.262 23.4759C16.5279 23.4759 16.8007 23.4622 17.0744 23.4338C17.3153 23.4079 17.5589 23.3701 17.7981 23.3219C21.3711 22.5999 23.9793 19.4288 24 15.7793V15.738C24 15.5056 23.9897 15.2733 23.969 15.0487L23.9699 15.0478ZM13.5453 21.2824L10.5911 21.5974L11.4731 19.6431L11.2967 19.4064C11.2838 19.3892 11.2709 19.372 11.2563 19.3522C10.4904 18.2946 10.0859 17.0451 10.0859 15.7388C10.0859 12.3328 12.8569 9.56188 16.2629 9.56188C19.4538 9.56188 22.1584 12.0514 22.4192 15.2294C22.433 15.3998 22.4407 15.571 22.4407 15.7397C22.4407 15.7879 22.4398 15.8352 22.439 15.886C22.3736 18.7352 20.3832 21.1551 17.5985 21.7712C17.3859 21.8185 17.1682 21.8547 16.9513 21.8779C16.7259 21.9037 16.4944 21.9166 16.2646 21.9166C15.4462 21.9166 14.6511 21.7583 13.8999 21.4451C13.8164 21.4115 13.7346 21.3754 13.658 21.3384L13.5462 21.2841L13.5453 21.2824Z" fill="black"/>
    </symbol>
    <symbol id="lightning" width="32" height="32" viewBox="0 0 32 32" fill="none">
        <path d="M26.975 14.775C26.9379 14.6138 26.8614 14.4643 26.7523 14.34C26.6432 14.2157 26.505 14.1203 26.35 14.0625L19.15 11.3625L20.975 2.2C21.017 1.98776 20.9899 1.76766 20.8977 1.57195C20.8054 1.37625 20.6529 1.21523 20.4625 1.1125C20.2702 1.01022 20.0495 0.97437 19.8348 1.01054C19.62 1.04671 19.4232 1.15287 19.275 1.3125L5.27503 16.3125C5.16031 16.4315 5.07731 16.5774 5.03363 16.7369C4.98995 16.8963 4.987 17.0641 5.02503 17.225C5.06416 17.3853 5.14142 17.5338 5.25023 17.6578C5.35904 17.7819 5.49619 17.8778 5.65003 17.9375L12.85 20.6375L11.025 29.8C10.9831 30.0122 11.0102 30.2323 11.1024 30.428C11.1946 30.6238 11.3471 30.7848 11.5375 30.8875C11.6811 30.9599 11.8393 30.9984 12 31C12.1359 31.0006 12.2704 30.9731 12.3951 30.9194C12.5199 30.8656 12.6322 30.7867 12.725 30.6875L26.725 15.6875C26.8397 15.5685 26.9227 15.4226 26.9664 15.2631C27.0101 15.1037 27.0131 14.9359 26.975 14.775Z" fill="black"/>
    </symbol>
    <symbol id="chat" width="32" height="32" viewBox="0 0 32 32" fill="none">
        <path d="M16.5 3C13.1868 3.00661 10.0112 4.32569 7.66846 6.66846C5.32569 9.01124 4.00661 12.1868 4 15.5V26.0375C4 26.558 4.20676 27.0572 4.5748 27.4252C4.94284 27.7932 5.44201 28 5.9625 28H16.5C19.8152 28 22.9946 26.683 25.3388 24.3388C27.683 21.9946 29 18.8152 29 15.5C29 12.1848 27.683 9.00537 25.3388 6.66117C22.9946 4.31696 19.8152 3 16.5 3Z" fill="white"/>
    </symbol>
    <symbol id="question-comma" width="20" height="23" viewBox="0 0 20 23" fill="none">
        <path fill-rule="evenodd" clip-rule="evenodd" d="M1.64722 22.9331C11.9224 22.0956 20.0001 13.4911 20.0001 3V0H5.00045V7.8421C5.00045 13.4279 5.00045 16.2208 4.21481 18.466C3.63551 20.1216 2.75883 21.6314 1.64722 22.9331Z" fill="white"/>
    </symbol>
    <symbol id="bracket" width="9" height="34" viewBox="0 0 9 34" fill="none">
        <path d="M9 33V33C4.58172 33 1 29.4183 1 25V9C1 4.58172 4.58172 1 9 1V1" stroke="white" stroke-opacity="0.5" stroke-width="1.5"/>
    </symbol>
    <symbol id="cursor" width="32" height="32" viewBox="0 0 32 32" fill="none">
        <path d="M27.4375 11.05L6.27495 3.72495C5.91934 3.59997 5.53565 3.57803 5.16811 3.66166C4.80057 3.74528 4.46414 3.93107 4.1976 4.1976C3.93107 4.46414 3.74528 4.80057 3.66166 5.16811C3.57803 5.53565 3.59997 5.91934 3.72495 6.27495L11.05 27.4375C11.1819 27.8329 11.4355 28.1764 11.7745 28.4189C12.1136 28.6614 12.5206 28.7904 12.9375 28.7875H12.975C13.3969 28.7884 13.8077 28.6524 14.1458 28.4C14.4839 28.1475 14.731 27.7922 14.85 27.3875L17.8 17.8125L27.375 14.85C27.78 14.7296 28.1358 14.4826 28.39 14.1451C28.6443 13.8076 28.7836 13.3975 28.7875 12.975C28.7965 12.5522 28.6704 12.1376 28.4276 11.7914C28.1849 11.4452 27.838 11.1855 27.4375 11.05Z" fill="white"/>
    </symbol>
    <symbol id="human" width="32" height="32" viewBox="0 0 32 32" fill="none">
        <path d="M15.9875 10C18.4728 10 20.4875 7.98528 20.4875 5.5C20.4875 3.01472 18.4728 1 15.9875 1C13.5023 1 11.4875 3.01472 11.4875 5.5C11.4875 7.98528 13.5023 10 15.9875 10Z" fill="white"/>
        <path d="M26.4624 17.4375L21.5374 11.1125L21.4624 11.025C21.1382 10.6989 20.7525 10.4404 20.3277 10.2644C19.9028 10.0885 19.4473 9.99861 18.9874 10H12.9874C12.5276 9.99861 12.072 10.0885 11.6472 10.2644C11.2223 10.4404 10.8366 10.6989 10.5124 11.025L10.4249 11.1125L5.51243 17.4375C5.04332 17.9066 4.77979 18.5429 4.77979 19.2063C4.77979 19.8697 5.04332 20.5059 5.51243 20.975C5.98153 21.4441 6.61777 21.7077 7.28118 21.7077C7.94459 21.7077 8.58082 21.4441 9.04993 20.975L10.8124 19.6L8.32493 27.4375C8.07798 28.022 8.06013 28.678 8.27493 29.275C8.38725 29.5848 8.56001 29.8692 8.78318 30.1117C9.00635 30.3542 9.27547 30.5499 9.57493 30.6875C9.8698 30.828 10.1898 30.9081 10.5161 30.9232C10.8424 30.9382 11.1684 30.8878 11.4749 30.775C12.0758 30.557 12.5717 30.1193 12.8624 29.55L15.9874 24.625L19.1124 29.55C19.4022 30.1154 19.8925 30.5522 20.4874 30.775C20.7644 30.8732 21.056 30.9239 21.3499 30.925C21.7134 30.9268 22.0726 30.8456 22.3999 30.6875C23.0023 30.4062 23.4695 29.8986 23.6999 29.275C23.9171 28.6774 23.8947 28.019 23.6374 27.4375L21.1624 19.6L22.9249 20.975C23.3982 21.4227 24.0275 21.668 24.6788 21.6587C25.3302 21.6493 25.9522 21.3861 26.4124 20.925C26.6443 20.6941 26.8279 20.4194 26.9523 20.1167C27.0768 19.8141 27.1397 19.4897 27.1374 19.1625C27.1429 18.5221 26.9011 17.9042 26.4624 17.4375Z" fill="white"/>
    </symbol>
    <symbol id="branches" width="78" height="96" viewBox="0 0 78 96" fill="none">
        <path d="M0 48.5H16.3949M16.3949 48.5V32C16.3949 18.7452 27.1401 8 40.3949 8H54.1529H78M16.3949 48.5V64C16.3949 77.2548 27.1401 88 40.3949 88H54.1529H78" stroke="white" stroke-opacity="0.5" stroke-width="1.5"/>
        <circle cx="16" cy="48" r="8" fill="white"/>
        <circle cx="16" cy="48" r="7.5" stroke="white" stroke-opacity="0.5"/>
        <circle cx="54" cy="8" r="8" fill="white"/>
        <circle cx="54" cy="8" r="7.5" stroke="white" stroke-opacity="0.5"/>
        <circle cx="54" cy="88" r="8" fill="white"/>
        <circle cx="54" cy="88" r="7.5" stroke="white" stroke-opacity="0.5"/>
    </symbol>
</svg>
