<?xml version="1.0" encoding="UTF-8"?>
<svg fill="#FFFFFF" id="_Слой_2" data-name="Слой 2" xmlns="http://www.w3.org/2000/svg" viewBox="0 0 699.99 159.92">
  <g id="_Слой_1-2" data-name="Слой 1">
    <g>
      <path d="M259.88,62.28l-6.14-6.14v-12.45h12.45v6.14h31.04v-12.36h-37.35l-6.14-4.45V6.35L259.88.03h43.58l6.14,6.31v12.36h-12.36v-6.23h-31.04v12.45h37.26l6.14,6.23v24.99l-6.14,6.14h-43.58Z"/>
      <path d="M332.62,62.28l-6.14-6.14V6.35L332.62.03h43.58l6.14,6.31v49.8l-6.14,6.14h-43.58ZM369.97,49.83V12.48h-31.04v37.35h31.04Z"/>
      <path d="M399.23,62.28V.03h52.82v12.45h-40.37v12.54h37.26v12.45h-37.26v24.81h-12.45Z"/>
      <path d="M485.4,62.28V12.48h-21.79V.03h55.85v12.45h-21.61v49.8h-12.45Z"/>
      <path d="M253.74,159.86v-62.25h49.71l6.14,6.31v18.68l-6.14,6.22,6.14,6.23v18.67l-6.14,6.14h-49.71ZM297.23,122.6v-12.54h-31.04v12.54h31.04ZM297.23,147.41v-12.36h-31.04v12.36h31.04Z"/>
      <path d="M369.97,159.86v-6.14l-6.23-6.31-6.22-6.14h-18.59v18.59h-12.45v-62.25h49.71l6.14,6.31v31.12l-6.14,6.23,6.14,6.14v12.45h-12.36ZM369.97,128.83v-18.76h-31.04v18.76h31.04Z"/>
      <path d="M399.23,159.86v-62.25h12.45v62.25h-12.45Z"/>
      <path d="M434.71,159.86l-6.14-6.14v-49.8l6.14-6.31h43.58l6.14,6.31v12.36h-12.36v-6.23h-31.04v37.35h31.04v-10.76h-15.65v-12.45h28.01v29.52l-6.14,6.14h-43.58Z"/>
      <path d="M500.43,159.86v-43.49l18.59-18.76h37.26v62.25h-12.36v-18.59h-31.04v18.59h-12.45ZM543.92,128.83v-18.76h-18.67l-12.36,12.54v6.22h31.04Z"/>
      <path d="M629.03,153.73l-6.14,6.14h-49.71v-62.25h37.26l18.59,18.68v37.44ZM616.67,122.52l-12.45-12.45h-18.59v37.35h31.04v-24.9Z"/>
      <path d="M644.15,159.86v-43.49l18.59-18.76h37.26v62.25h-12.36v-18.59h-31.04v18.59h-12.45ZM687.63,128.83v-18.76h-18.67l-12.36,12.54v6.22h31.04Z"/>
    </g>
    <polygon points="32.41 159.92 0 159.92 0 143.92 25.78 143.92 36.1 133.61 36.1 98.83 54.97 79.96 36.1 61.09 36.1 26.31 25.78 16 0 16 0 0 32.41 0 52.1 19.69 52.1 54.46 77.59 79.96 52.1 105.46 52.1 140.24 32.41 159.92"/>
    <circle cx="14.36" cy="48.42" r="10.5"/>
    <polygon points="138.36 79.96 112.86 105.46 112.86 140.24 93.18 159.92 47.56 159.92 63.56 143.92 86.55 143.92 96.86 133.61 96.86 98.83 115.73 79.96 96.86 61.09 96.86 26.31 86.55 16 63.56 16 47.56 0 93.18 0 112.86 19.68 112.86 54.46 138.36 79.96"/>
    <polygon points="199.12 79.96 173.62 105.46 173.62 140.24 153.94 159.92 108.32 159.92 124.32 143.92 147.31 143.92 157.62 133.61 157.62 98.83 176.49 79.96 157.62 61.09 157.62 26.31 147.31 16 124.32 16 108.32 0 153.94 0 173.62 19.68 173.62 54.46 199.12 79.96"/>
    <circle cx="75.12" cy="48.42" r="10.5"/>
    <circle cx="135.88" cy="48.42" r="10.5"/>
  </g>
</svg>