<?xml version="1.0" encoding="UTF-8"?>
<svg fill="#FFFFFF" id="_Слой_2" data-name="Слой 2" xmlns="http://www.w3.org/2000/svg" viewBox="0 0 729.39 190.57">
  <defs>
    <style>
      .cls-1 {
        letter-spacing: .09em;
      }

      .cls-2 {
        font-family: Bedstead-Extended, Bedstead;
        font-size: 87.82px;
        stroke: #000;
        stroke-miterlimit: 10;
        stroke-width: 2px;
      }

      .cls-3 {
        letter-spacing: -.03em;
      }

      .cls-4 {
        letter-spacing: .09em;
      }
    </style>
  </defs>
  <g id="_Слой_1-2" data-name="Слой 1">
    <text class="cls-2" transform="translate(241.87 75.64)"><tspan class="cls-4"><tspan x="0" y="0">SOFT</tspan></tspan><tspan class="cls-4" x="0" y="96.36">B</tspan><tspan class="cls-3" x="73.77" y="96.36">RI</tspan><tspan class="cls-1" x="199.35" y="96.36">GADA</tspan></text>
    <polygon points="32.41 173.03 0 173.03 0 157.03 25.78 157.03 36.1 146.71 36.1 111.94 54.97 93.07 36.1 74.2 36.1 39.42 25.78 29.1 0 29.1 0 13.1 32.41 13.1 52.1 32.79 52.1 67.57 77.59 93.07 52.1 118.56 52.1 153.34 32.41 173.03"/>
    <circle cx="14.36" cy="61.52" r="10.5"/>
    <polygon points="138.36 93.07 112.86 118.57 112.86 153.35 93.18 173.03 47.56 173.03 63.56 157.03 86.55 157.03 96.86 146.72 96.86 111.94 115.73 93.07 96.86 74.2 96.86 39.42 86.55 29.11 63.56 29.11 47.56 13.11 93.18 13.11 112.86 32.79 112.86 67.57 138.36 93.07"/>
    <polygon points="199.12 93.07 173.62 118.57 173.62 153.35 153.94 173.03 108.32 173.03 124.32 157.03 147.31 157.03 157.62 146.72 157.62 111.94 176.49 93.07 157.62 74.2 157.62 39.42 147.31 29.11 124.32 29.11 108.32 13.11 153.94 13.11 173.62 32.79 173.62 67.57 199.12 93.07"/>
    <circle cx="75.12" cy="61.52" r="10.5"/>
    <circle cx="135.88" cy="61.52" r="10.5"/>
  </g>
</svg>