<?xml version="1.0" encoding="UTF-8"?>
<svg fill="#FFFFFF" id="_Слой_2" data-name="Слой 2" xmlns="http://www.w3.org/2000/svg" viewBox="0 0 756.38 160.85">
  <g id="_Слой_1-2" data-name="Слой 1">
    <g>
      <path d="M293.69,59.29c1.93-1.93,2.91-4.3,2.91-7.03v-16.9c0-2.73-.98-5.1-2.91-7.04-1.94-1.93-4.3-2.91-7.03-2.91h-22.64v-13.89h32.58V.07h-35.29c-2.73,0-5.1.98-7.03,2.91-1.93,1.93-2.91,4.3-2.91,7.03v16.89c0,2.74.98,5.1,2.91,7.03,1.93,1.93,4.3,2.91,7.04,2.91h22.64v13.9h-32.58v11.45h35.29c2.73,0,5.1-.98,7.03-2.91Z"/>
      <path d="M373.94,59.29c1.93-1.93,2.91-4.3,2.91-7.03V10.02c0-2.73-.98-5.1-2.91-7.04-1.94-1.93-4.3-2.91-7.03-2.91h-33.79c-2.73,0-5.1.98-7.03,2.91-1.93,1.93-2.91,4.3-2.91,7.03v42.24c0,2.74.98,5.1,2.91,7.03,1.93,1.93,4.3,2.91,7.04,2.91h33.79c2.73,0,5.1-.98,7.03-2.91ZM364.2,11.52v39.24h-28.38V11.52h28.38Z"/>
      <polygon points="405.84 11.52 412.16 11.52 405.84 17.85 405.84 62.2 418.49 62.2 418.49 45.31 451.07 45.31 451.07 33.86 423.61 33.86 418.49 38.98 418.49 11.52 451.07 11.52 451.07 .07 405.84 .07 405.84 11.52"/>
      <polygon points="465.57 11.52 483.07 11.52 483.07 62.2 495.72 62.2 495.72 11.52 513.22 11.52 513.22 .07 465.57 .07 465.57 11.52"/>
      <path d="M299.02,123.22v-15.47c0-2.73-.98-5.1-2.91-7.03-1.93-1.93-4.3-2.91-7.03-2.91h-35.29v11.45h6.33l-6.33,6.33v44.36h43.74c2.73,0,5.1-.98,7.03-2.91,1.93-1.93,2.91-4.3,2.91-7.03v-16.9c0-2.72-.93-5.08-2.77-7.01-1.57-1.65-3.47-2.61-5.68-2.87ZM286.37,123.15h-14.81l-5.12,5.12v-19.01h19.93v13.89ZM294.81,134.59v13.9h-28.38v-13.9h28.38Z"/>
      <path d="M378.37,141.83c4.54,0,9.95-1.94,9.95-11.15v-22.93c0-2.65-1-5-2.97-6.97-1.97-1.97-4.32-2.97-6.97-2.97h-43.74v11.45h6.29l-6.29,6.2v44.49h12.65v-28.07l27.8,28.07h16.58l-18.23-18.1h4.94ZM347.29,109.25h28.38v22.34h-28.38v-22.34Z"/>
      <rect x="414.89" y="97.8" width="12.65" height="62.13"/>
      <path d="M459.49,100.78c-1.97,1.97-2.97,4.32-2.97,6.97v42.24c0,2.65,1,5,2.97,6.97,1.97,1.97,4.32,2.97,6.97,2.97h25.96l5.12-5.12v5.12h12.65v-36.79h-19.02l-11.45,11.45h17.81v13.9h-28.38v-39.24h41.03v-11.45h-43.74c-2.65,0-5,1-6.97,2.97Z"/>
      <path d="M539.68,100.72c-1.93,1.93-2.91,4.3-2.91,7.03v52.18h12.65v-16.9h28.38v16.9h12.65v-62.13h-43.74c-2.73,0-5.1.98-7.03,2.91ZM577.8,131.59h-23.26l-5.12,5.12v-27.46h28.38v22.34Z"/>
      <path d="M663.77,97.8h-43.74v11.45h6.33l-6.33,6.33v44.36h9.65v.92l.92-.92h33.17c2.65,0,5-1,6.97-2.97,1.97-1.97,2.97-4.32,2.97-6.97v-42.24c0-2.65-1-5-2.97-6.97-1.97-1.97-4.32-2.97-6.97-2.97ZM632.69,109.25h28.38v39.24h-23.26l-5.12,5.12v-44.36Z"/>
      <path d="M712.65,97.8c-2.73,0-5.1.98-7.03,2.91-1.93,1.93-2.91,4.3-2.91,7.03v52.18h12.65v-16.9h28.38v16.9h12.65v-62.13h-43.74ZM743.73,131.59h-23.26l-5.12,5.12v-27.46h28.38v22.34Z"/>
    </g>
    <polygon points="32.41 159.92 0 159.92 0 143.92 25.78 143.92 36.1 133.61 36.1 98.83 54.97 79.96 36.1 61.09 36.1 26.31 25.78 16 0 16 0 0 32.41 0 52.1 19.69 52.1 54.46 77.59 79.96 52.1 105.46 52.1 140.24 32.41 159.92"/>
    <circle cx="14.36" cy="48.42" r="10.5"/>
    <polygon points="138.36 79.96 112.86 105.46 112.86 140.24 93.18 159.92 47.56 159.92 63.56 143.92 86.55 143.92 96.86 133.61 96.86 98.83 115.73 79.96 96.86 61.09 96.86 26.31 86.55 16 63.56 16 47.56 0 93.18 0 112.86 19.68 112.86 54.46 138.36 79.96"/>
    <polygon points="199.12 79.96 173.62 105.46 173.62 140.24 153.94 159.92 108.32 159.92 124.32 143.92 147.31 143.92 157.62 133.61 157.62 98.83 176.49 79.96 157.62 61.09 157.62 26.31 147.31 16 124.32 16 108.32 0 153.94 0 173.62 19.68 173.62 54.46 199.12 79.96"/>
    <circle cx="75.12" cy="48.42" r="10.5"/>
    <circle cx="135.88" cy="48.42" r="10.5"/>
  </g>
</svg>