<?xml version="1.0" encoding="UTF-8"?>
<svg fill="#FFFFFF" id="_Слой_2" data-name="Слой 2" xmlns="http://www.w3.org/2000/svg" viewBox="0 0 767.24 217.19">
  <defs>
    <style>
      .cls-1 {
        font-family: Iceland-Regular, Iceland;
        font-size: 120.68px;
        letter-spacing: .09em;
        stroke: #000;
        stroke-miterlimit: 10;
        stroke-width: 3px;
      }
    </style>
  </defs>
  <g id="_Слой_1-2" data-name="Слой 1">
    <text class="cls-1" transform="translate(244.42 91.4)"><tspan x="0" y="0">SOFT</tspan><tspan x="0" y="97.73">BRIGADA</tspan></text>
    <polygon points="32.41 190.62 0 190.62 0 174.62 25.78 174.62 36.1 164.31 36.1 129.53 54.97 110.66 36.1 91.79 36.1 57.01 25.78 46.7 0 46.7 0 30.7 32.41 30.7 52.1 50.39 52.1 85.16 77.59 110.66 52.1 136.16 52.1 170.94 32.41 190.62"/>
    <circle cx="14.36" cy="79.12" r="10.5"/>
    <polygon points="138.36 110.66 112.86 136.16 112.86 170.94 93.18 190.62 47.56 190.62 63.56 174.62 86.55 174.62 96.86 164.31 96.86 129.53 115.73 110.66 96.86 91.79 96.86 57.01 86.55 46.7 63.56 46.7 47.56 30.7 93.18 30.7 112.86 50.38 112.86 85.16 138.36 110.66"/>
    <polygon points="199.12 110.66 173.62 136.16 173.62 170.94 153.94 190.62 108.32 190.62 124.32 174.62 147.31 174.62 157.62 164.31 157.62 129.53 176.49 110.66 157.62 91.79 157.62 57.01 147.31 46.7 124.32 46.7 108.32 30.7 153.94 30.7 173.62 50.38 173.62 85.16 199.12 110.66"/>
    <circle cx="75.12" cy="79.12" r="10.5"/>
    <circle cx="135.88" cy="79.12" r="10.5"/>
  </g>
</svg>