<?xml version="1.0" encoding="UTF-8"?>
<svg fill="#FFFFFF" id="_Слой_2" data-name="Слой 2" xmlns="http://www.w3.org/2000/svg" viewBox="0 0 767.24 217.19">
  <defs>
    <style>
      .cls-1 {
        font-family: Iceland-Regular, Iceland;
        font-size: 120.68px;
        letter-spacing: .09em;
        stroke: #000;
        stroke-miterlimit: 10;
        stroke-width: 3px;
      }
    </style>
  </defs>
  <g id="_Слой_1-2" data-name="Слой 1">
    <polygon points="52.1 190.61 0 190.61 0 174.61 36.1 174.61 36.1 129.52 54.97 110.65 36.1 91.78 36.1 46.69 0 46.69 0 30.69 52.1 30.69 52.1 85.15 77.59 110.65 52.1 136.15 52.1 190.61"/>
    <circle cx="14.36" cy="79.11" r="10.5"/>
    <polygon points="112.86 190.61 61.76 190.61 61.76 174.61 96.86 174.61 96.86 129.52 115.73 110.65 96.86 91.78 96.86 46.69 61.76 46.69 61.76 30.69 112.86 30.69 112.86 85.15 138.35 110.65 112.86 136.15 112.86 190.61"/>
    <circle cx="75.12" cy="79.11" r="10.5"/>
    <polygon points="173.62 190.61 122.52 190.61 122.52 174.61 157.62 174.61 157.62 129.52 176.49 110.65 157.62 91.78 157.62 46.69 122.52 46.69 122.52 30.69 173.62 30.69 173.62 85.15 199.12 110.65 173.62 136.15 173.62 190.61"/>
    <circle cx="135.88" cy="79.11" r="10.5"/>
    <text class="cls-1" transform="translate(244.42 91.4)"><tspan x="0" y="0">SOFT</tspan><tspan x="0" y="97.73">BRIGADA</tspan></text>
  </g>
</svg>