<?xml version="1.0" encoding="UTF-8"?>
<svg fill="#FFFFFF" id="_Слой_2" data-name="Слой 2" xmlns="http://www.w3.org/2000/svg" viewBox="0 0 699.99 159.93">
  <g id="_Слой_1-2" data-name="Слой 1">
    <path d="M24.1,159.93H0v-16h24.1c6.62,0,12-5.38,12-12v-33.09l18.87-18.87-18.87-18.87V28c0-6.62-5.38-12-12-12H0V0h24.1C39.54,0,52.1,12.57,52.1,28v26.46l25.5,25.5-25.5,25.5v26.46c0,15.44-12.56,28-28,28Z"/>
    <circle cx="14.36" cy="48.42" r="10.5"/>
    <path d="M138.36,79.97l-25.5,25.49v26.47c0,15.44-12.56,28-28,28h-33.64c4.53-4.39,8-9.86,9.99-16h23.65c6.62,0,12-5.38,12-12v-33.09l18.87-18.87-18.87-18.87V28c0-6.61-5.38-12-12-12h-23.65c-1.99-6.14-5.46-11.61-9.99-16h33.64c15.44,0,28,12.57,28,28v26.47l25.5,25.5Z"/>
    <path d="M199.12,79.97l-25.5,25.49v26.47c0,15.44-12.56,28-28,28h-33.64c4.53-4.39,8-9.86,9.99-16h23.65c6.62,0,12-5.38,12-12v-33.09l18.87-18.87-18.87-18.87V28c0-6.61-5.38-12-12-12h-23.65c-1.99-6.14-5.46-11.61-9.99-16h33.64c15.44,0,28,12.57,28,28v26.47l25.5,25.5Z"/>
    <circle cx="75.12" cy="48.42" r="10.5"/>
    <circle cx="135.88" cy="48.42" r="10.5"/>
    <g>
      <path d="M259.88,62.29l-6.14-6.14v-12.45h12.45v6.14h31.04v-12.36h-37.35l-6.14-4.45V6.35L259.88.04h43.58l6.14,6.31v12.36h-12.36v-6.23h-31.04v12.45h37.26l6.14,6.23v24.99l-6.14,6.14h-43.58Z"/>
      <path d="M332.62,62.29l-6.14-6.14V6.35L332.62.04h43.58l6.14,6.31v49.8l-6.14,6.14h-43.58ZM369.97,49.84V12.49h-31.04v37.35h31.04Z"/>
      <path d="M399.23,62.29V.04h52.82v12.45h-40.37v12.54h37.26v12.45h-37.26v24.81h-12.45Z"/>
      <path d="M485.4,62.29V12.49h-21.79V.04h55.85v12.45h-21.61v49.8h-12.45Z"/>
      <path d="M253.74,159.87v-62.25h49.71l6.14,6.31v18.68l-6.14,6.22,6.14,6.23v18.67l-6.14,6.14h-49.71ZM297.23,122.61v-12.54h-31.04v12.54h31.04ZM297.23,147.42v-12.36h-31.04v12.36h31.04Z"/>
      <path d="M369.97,159.87v-6.14l-6.23-6.31-6.22-6.14h-18.59v18.59h-12.45v-62.25h49.71l6.14,6.31v31.12l-6.14,6.23,6.14,6.14v12.45h-12.36ZM369.97,128.84v-18.76h-31.04v18.76h31.04Z"/>
      <path d="M399.23,159.87v-62.25h12.45v62.25h-12.45Z"/>
      <path d="M434.71,159.87l-6.14-6.14v-49.8l6.14-6.31h43.58l6.14,6.31v12.36h-12.36v-6.23h-31.04v37.35h31.04v-10.76h-15.65v-12.45h28.01v29.52l-6.14,6.14h-43.58Z"/>
      <path d="M500.43,159.87v-43.49l18.59-18.76h37.26v62.25h-12.36v-18.59h-31.04v18.59h-12.45ZM543.92,128.84v-18.76h-18.67l-12.36,12.54v6.22h31.04Z"/>
      <path d="M629.03,153.74l-6.14,6.14h-49.71v-62.25h37.26l18.59,18.68v37.44ZM616.67,122.52l-12.45-12.45h-18.59v37.35h31.04v-24.9Z"/>
      <path d="M644.15,159.87v-43.49l18.59-18.76h37.26v62.25h-12.36v-18.59h-31.04v18.59h-12.45ZM687.63,128.84v-18.76h-18.67l-12.36,12.54v6.22h31.04Z"/>
    </g>
  </g>
</svg>