<?xml version="1.0" encoding="UTF-8"?>
<svg fill="#FFFFFF" id="_Слой_2" data-name="Слой 2" xmlns="http://www.w3.org/2000/svg" viewBox="0 0 894.09 159.93">
  <g id="_Слой_1-2" data-name="Слой 1">
    <path d="M24.1,159.93H0v-16h24.1c6.62,0,12-5.38,12-12v-33.09l18.87-18.87-18.87-18.87V28c0-6.62-5.38-12-12-12H0V0h24.1C39.54,0,52.1,12.57,52.1,28v26.46l25.5,25.5-25.5,25.5v26.46c0,15.44-12.56,28-28,28Z"/>
    <circle cx="14.36" cy="48.42" r="10.5"/>
    <path d="M138.36,79.97l-25.5,25.49v26.47c0,15.44-12.56,28-28,28h-33.64c4.53-4.39,8-9.86,9.99-16h23.65c6.62,0,12-5.38,12-12v-33.09l18.87-18.87-18.87-18.87V28c0-6.61-5.38-12-12-12h-23.65c-1.99-6.14-5.46-11.61-9.99-16h33.64c15.44,0,28,12.57,28,28v26.47l25.5,25.5Z"/>
    <path d="M199.12,79.97l-25.5,25.49v26.47c0,15.44-12.56,28-28,28h-33.64c4.53-4.39,8-9.86,9.99-16h23.65c6.62,0,12-5.38,12-12v-33.09l18.87-18.87-18.87-18.87V28c0-6.61-5.38-12-12-12h-23.65c-1.99-6.14-5.46-11.61-9.99-16h33.64c15.44,0,28,12.57,28,28v26.47l25.5,25.5Z"/>
    <circle cx="75.12" cy="48.42" r="10.5"/>
    <circle cx="135.88" cy="48.42" r="10.5"/>
    <g>
      <path d="M331.48,28.48c-1.25-1.25-2.83-1.91-4.57-1.91h-58.57c-.24,0-.38-.13-.38-.38v-13.02c0-.24.13-.38.38-.38h57.63c.08,0,.17.01.32.16l4.89,4.89c.4.4.86.6,1.38.6h4.04c1.07,0,1.88-.81,1.88-1.88V1.89c0-1.07-.81-1.88-1.88-1.88h-67.03c-1.74,0-3.32.66-4.57,1.91l-7.9,7.9c-1.25,1.25-1.91,2.83-1.91,4.57v10.58c0,1.74.66,3.32,1.91,4.57l7.9,7.9c1.25,1.25,2.83,1.91,4.57,1.91h58.57c.24,0,.38.13.38.38v13.03c0,.24-.13.38-.38.38h-57.63c-.08,0-.17-.01-.32-.16l-4.89-4.89c-.4-.4-.86-.6-1.38-.6h-4.04c-1.07,0-1.88.81-1.88,1.88v14.67c0,1.07.81,1.88,1.88,1.88h67.03c1.74,0,3.32-.66,4.57-1.91l7.9-7.9c1.25-1.25,1.91-2.83,1.91-4.57v-10.58c0-1.74-.66-3.32-1.91-4.57l-7.9-7.9Z"/>
      <path d="M435.86,1.94c-1.13-1.23-2.8-1.93-4.6-1.93h-57.35c-1.76,0-3.36.69-4.48,1.91l-8.02,7.92c-1.22,1.33-1.89,2.94-1.89,4.55v37.14c0,1.61.67,3.22,1.91,4.58l7.97,7.87c1.14,1.25,2.74,1.94,4.5,1.94h57.35c1.79,0,3.47-.71,4.57-1.91l8.02-7.92c1.17-1.28,1.8-2.85,1.8-4.55V14.39c0-1.69-.62-3.27-1.82-4.58l-7.96-7.87ZM432.86,13.17v39.59c0,.24-.13.38-.38.38h-59.79c-.16,0-.38-.14-.38-.38V13.17c0-.23.22-.38.38-.38h59.79c.24,0,.38.13.38.38Z"/>
      <path d="M474.01,48.09c-.14-.14-.16-.23-.16-.32v-8.04c0-.24.13-.38.38-.38h68.25c1.07,0,1.88-.81,1.88-1.88v-9.02c0-1.07-.81-1.88-1.88-1.88h-63.27c-.08,0-.17-.01-.32-.16l-4.89-4.89c-.14-.14-.16-.24-.16-.32v-8.04c0-.24.13-.38.38-.38h73.89c1.07,0,1.88-.81,1.88-1.88V1.89c0-1.07-.81-1.88-1.88-1.88h-82.35c-1.07,0-1.88.81-1.88,1.88v62.15c0,1.07.81,1.88,1.88,1.88h11.84c1.07,0,1.88-.81,1.88-1.88v-9.68c0-.52-.2-.98-.6-1.38l-4.89-4.89Z"/>
      <path d="M603.03,8.94v55.1c0,1.07.81,1.88,1.88,1.88h9.03c1.07,0,1.88-.81,1.88-1.88V8.94c0-.24.13-.38.38-.38h4.04c.08,0,.17.01.32.16l4.89,4.89c.4.4.86.6,1.38.6h23.78c1.07,0,1.88-.81,1.88-1.88V1.89c0-1.07-.81-1.88-1.88-1.88h-82.35c-1.07,0-1.88.81-1.88,1.88v10.43c0,1.07.81,1.88,1.88,1.88h23.78c.52,0,.98-.2,1.38-.6l4.89-4.89c.14-.14.24-.16.32-.16h4.04c.24,0,.38.13.38.38Z"/>
      <path d="M331.48,95.93c-1.25-1.25-2.83-1.91-4.57-1.91h-69.85c-1.07,0-1.88.81-1.88,1.88v62.15c0,1.07.81,1.88,1.88,1.88h69.85c1.74,0,3.32-.66,4.57-1.91l7.9-7.9c1.25-1.25,1.91-2.83,1.91-4.57v-12.46c0-.52-.2-.98-.6-1.38l-4.89-4.89c-.14-.14-.16-.23-.16-.31v-4.04c0-.24.13-.38.38-.38h3.38c1.07,0,1.88-.81,1.88-1.88v-11.8c0-1.74-.66-3.32-1.91-4.57l-7.9-7.9ZM262.32,133.74c0-.24.13-.38.38-.38h65.43c.24,0,.38.13.38.38v13.03c0,.24-.13.38-.38.38h-60.45c-.08,0-.17-.01-.32-.16l-4.89-4.89c-.14-.14-.16-.23-.16-.32v-8.04ZM267.36,120.43l-4.89-4.89c-.14-.14-.16-.24-.16-.32v-8.04c0-.24.13-.38.38-.38h65.43c.24,0,.38.13.38.38v13.02c0,.24-.13.38-.38.38h-60.45c-.08,0-.17-.01-.32-.16Z"/>
      <path d="M435.83,95.93c-1.25-1.25-2.83-1.91-4.57-1.91h-69.85c-1.07,0-1.88.81-1.88,1.88v62.15c0,1.07.81,1.88,1.88,1.88h9.02c1.07,0,1.88-.81,1.88-1.88v-19.61c0-.24.13-.38.38-.38h20.31c.15,0,.34.06.54.13l39.24,21.45.12.05c.25.08.74.23,1.18.23h9.68c1.07,0,1.88-.81,1.88-1.88v-5.45c0-.76-.44-1.39-1.17-1.71l-22.51-12.82h9.3c1.74,0,3.32-.66,4.54-1.88l7.93-6.99c1.25-1.25,1.91-2.83,1.91-4.57v-16.22c0-1.74-.66-3.32-1.91-4.57l-7.9-7.9ZM371.72,120.43l-4.89-4.89c-.14-.14-.16-.24-.16-.32v-8.04c0-.24.13-.38.38-.38h65.43c.24,0,.38.13.38.38v18.67c0,.24-.13.38-.38.38h-59.79c-.24,0-.38-.13-.38-.38v-4.04c0-.52-.2-.98-.6-1.38Z"/>
      <rect x="463.89" y="94.02" width="12.78" height="65.91" rx="1.88" ry="1.88"/>
      <path d="M579.14,94.02h-69.85c-1.74,0-3.32.66-4.57,1.91l-7.9,7.9c-1.25,1.25-1.91,2.83-1.91,4.57v37.14c0,1.74.66,3.32,1.91,4.57l7.9,7.9c1.25,1.25,2.83,1.91,4.57,1.91h59.23c.52,0,.98-.2,1.38-.6l10.53-10.53c.39-.4.59-.86.59-1.38v-24.96c0-1.07-.81-1.88-1.88-1.88h-59.79c-1.07,0-1.88.81-1.88,1.88v9.02c0,1.07.81,1.88,1.88,1.88h26.6c.52,0,.98-.2,1.38-.6l4.89-4.89c.15-.15.24-.16.32-.16h15.32c.24,0,.38.13.38.38v18.67c0,.24-.13.38-.38.38h-59.79c-.24,0-.38-.13-.38-.38v-39.59c0-.24.13-.38.38-.38h60.45c.08,0,.17.01.32.16l4.89,4.89c.39.4.86.6,1.38.6h4.04c1.07,0,1.88-.81,1.88-1.88v-14.67c0-1.07-.81-1.88-1.88-1.88Z"/>
      <path d="M675.57,95.93c-1.25-1.25-2.83-1.91-4.57-1.91h-57.35c-1.74,0-3.32.66-4.57,1.91l-7.9,7.9c-1.25,1.25-1.91,2.83-1.91,4.57v49.65c0,1.07.81,1.88,1.88,1.88h11.84c1.07,0,1.88-.81,1.88-1.88v-9.68c0-.52-.2-.98-.6-1.38l-4.89-4.89c-.14-.14-.16-.23-.16-.32v-8.04c0-.24.13-.38.38-.38h65.43c.24,0,.38.13.38.38v8.04c0,.08-.01.17-.16.32l-4.89,4.89c-.4.4-.6.86-.6,1.38v9.68c0,1.07.81,1.88,1.88,1.88h11.84c1.07,0,1.88-.81,1.88-1.88v-49.65c0-1.74-.66-3.32-1.91-4.57l-7.9-7.9ZM675.41,112.16v8.04c0,.24-.13.38-.38.38h-65.43c-.24,0-.38-.13-.38-.38v-8.04c0-.08.01-.17.16-.32l4.89-4.89c.15-.15.24-.16.32-.16h55.47c.08,0,.17.01.32.16l4.89,4.89c.14.14.16.24.16.32Z"/>
      <path d="M779.92,95.93c-1.25-1.25-2.83-1.91-4.57-1.91h-69.85c-1.07,0-1.88.81-1.88,1.88v62.15c0,1.07.81,1.88,1.88,1.88h69.85c1.74,0,3.32-.66,4.57-1.91l7.9-7.9c1.25-1.25,1.91-2.83,1.91-4.57v-37.14c0-1.74-.66-3.32-1.91-4.57l-7.9-7.9ZM715.81,120.43l-4.89-4.89c-.14-.14-.16-.24-.16-.32v-8.04c0-.24.13-.38.38-.38h65.43c.24,0,.38.13.38.38v39.59c0,.24-.13.38-.38.38h-59.79c-.24,0-.38-.13-.38-.38v-24.96c0-.52-.2-.98-.6-1.38Z"/>
      <path d="M892.17,103.83l-7.9-7.9c-1.25-1.25-2.83-1.91-4.57-1.91h-57.35c-1.74,0-3.32.66-4.57,1.91l-7.9,7.9c-1.25,1.25-1.91,2.83-1.91,4.57v49.65c0,1.07.81,1.88,1.88,1.88h11.84c1.07,0,1.88-.81,1.88-1.88v-9.68c0-.52-.2-.98-.6-1.38l-4.89-4.89c-.14-.14-.16-.23-.16-.32v-8.04c0-.24.13-.38.38-.38h65.43c.24,0,.38.13.38.38v8.04c0,.08-.01.17-.16.32l-4.89,4.89c-.4.4-.6.86-.6,1.38v9.68c0,1.07.81,1.88,1.88,1.88h11.85c1.07,0,1.88-.81,1.88-1.88v-49.65c0-1.74-.66-3.32-1.91-4.57ZM884.12,112.16v8.04c0,.24-.13.38-.38.38h-65.43c-.24,0-.38-.13-.38-.38v-8.04c0-.08.01-.17.16-.32l4.89-4.89c.15-.15.24-.16.32-.16h55.47c.08,0,.17.01.32.16l4.89,4.89c.14.14.16.24.16.32Z"/>
    </g>
  </g>
</svg>