<?xml version="1.0" encoding="UTF-8"?>
<svg fill="#FFFFFF" id="_Слой_2" data-name="Слой 2" xmlns="http://www.w3.org/2000/svg" viewBox="0 0 199.12 159.92">
  <g id="_Слой_1-2" data-name="Слой 1">
    <polygon points="32.41 159.92 0 159.92 0 143.92 25.78 143.92 36.1 133.61 36.1 98.83 54.97 79.96 36.1 61.09 36.1 26.31 25.78 16 0 16 0 0 32.41 0 52.1 19.69 52.1 54.46 77.59 79.96 52.1 105.46 52.1 140.24 32.41 159.92"/>
    <circle cx="14.36" cy="48.42" r="10.5"/>
    <polygon points="138.36 79.96 112.86 105.46 112.86 140.24 93.18 159.92 47.56 159.92 63.56 143.92 86.55 143.92 96.86 133.61 96.86 98.83 115.73 79.96 96.86 61.09 96.86 26.31 86.55 16 63.56 16 47.56 0 93.18 0 112.86 19.68 112.86 54.46 138.36 79.96"/>
    <polygon points="199.12 79.96 173.62 105.46 173.62 140.24 153.94 159.92 108.32 159.92 124.32 143.92 147.31 143.92 157.62 133.61 157.62 98.83 176.49 79.96 157.62 61.09 157.62 26.31 147.31 16 124.32 16 108.32 0 153.94 0 173.62 19.68 173.62 54.46 199.12 79.96"/>
    <circle cx="75.12" cy="48.42" r="10.5"/>
    <circle cx="135.88" cy="48.42" r="10.5"/>
  </g>
</svg>