<?xml version="1.0" encoding="UTF-8"?>
<svg fill="#FFFFFF" id="_Слой_2" data-name="Слой 2" xmlns="http://www.w3.org/2000/svg" viewBox="0 0 199.12 159.92">
  <g id="_Слой_1-2" data-name="Слой 1">
    <polygon points="52.1 159.92 0 159.92 0 143.92 36.1 143.92 36.1 98.83 54.97 79.96 36.1 61.09 36.1 16 0 16 0 0 52.1 0 52.1 54.46 77.59 79.96 52.1 105.46 52.1 159.92"/>
    <circle cx="14.36" cy="48.42" r="10.5"/>
    <polygon points="112.86 159.92 61.76 159.92 61.76 143.92 96.86 143.92 96.86 98.83 115.73 79.96 96.86 61.09 96.86 16 61.76 16 61.76 0 112.86 0 112.86 54.46 138.35 79.96 112.86 105.46 112.86 159.92"/>
    <circle cx="75.12" cy="48.42" r="10.5"/>
    <polygon points="173.62 159.92 122.52 159.92 122.52 143.92 157.62 143.92 157.62 98.83 176.49 79.96 157.62 61.09 157.62 16 122.52 16 122.52 0 173.62 0 173.62 54.46 199.12 79.96 173.62 105.46 173.62 159.92"/>
    <circle cx="135.88" cy="48.42" r="10.5"/>
  </g>
</svg>