<?xml version="1.0" encoding="UTF-8"?>
<svg fill="#FFFFFF" id="_Слой_2" data-name="Слой 2" xmlns="http://www.w3.org/2000/svg" viewBox="0 0 446.25 159.83">
  <g id="_Слой_1-2" data-name="Слой 1">
    <g>
      <path d="M6.14,62.25l-6.14-6.14v-12.45h12.45v6.14h31.04v-12.36H6.14l-6.14-4.45V6.31L6.14,0h43.58l6.14,6.31v12.36h-12.36v-6.23H12.45v12.45h37.26l6.14,6.23v24.99l-6.14,6.14H6.14Z"/>
      <path d="M78.88,62.25l-6.14-6.14V6.31l6.14-6.31h43.58l6.14,6.31v49.8l-6.14,6.14h-43.58ZM116.23,49.8V12.45h-31.04v37.35h31.04Z"/>
      <path d="M145.49,62.25V0h52.82v12.45h-40.37v12.54h37.26v12.45h-37.26v24.81h-12.45Z"/>
      <path d="M231.67,62.25V12.45h-21.79V0h55.85v12.45h-21.61v49.8h-12.45Z"/>
      <path d="M0,159.83v-62.25h49.71l6.14,6.31v18.68l-6.14,6.22,6.14,6.23v18.67l-6.14,6.14H0ZM43.49,122.57v-12.54H12.45v12.54h31.04ZM43.49,147.38v-12.36H12.45v12.36h31.04Z"/>
      <path d="M116.23,159.83v-6.14l-6.23-6.31-6.22-6.14h-18.59v18.59h-12.45v-62.25h49.71l6.14,6.31v31.12l-6.14,6.23,6.14,6.14v12.45h-12.36ZM116.23,128.8v-18.76h-31.04v18.76h31.04Z"/>
      <path d="M145.49,159.83v-62.25h12.45v62.25h-12.45Z"/>
      <path d="M180.97,159.83l-6.14-6.14v-49.8l6.14-6.31h43.58l6.14,6.31v12.36h-12.36v-6.23h-31.04v37.35h31.04v-10.76h-15.65v-12.45h28.01v29.52l-6.14,6.14h-43.58Z"/>
      <path d="M246.7,159.83v-43.49l18.59-18.76h37.26v62.25h-12.36v-18.59h-31.04v18.59h-12.45ZM290.18,128.8v-18.76h-18.67l-12.36,12.54v6.22h31.04Z"/>
      <path d="M375.29,153.7l-6.14,6.14h-49.71v-62.25h37.26l18.59,18.68v37.44ZM362.93,122.48l-12.45-12.45h-18.59v37.35h31.04v-24.9Z"/>
      <path d="M390.41,159.83v-43.49l18.59-18.76h37.26v62.25h-12.36v-18.59h-31.04v18.59h-12.45ZM433.89,128.8v-18.76h-18.67l-12.36,12.54v6.22h31.04Z"/>
    </g>
  </g>
</svg>