<?xml version="1.0" encoding="UTF-8"?>
<svg fill="#FFFFFF" id="_Слой_2" data-name="Слой 2" xmlns="http://www.w3.org/2000/svg" viewBox="0 0 638.91 159.92">
  <g id="_Слой_1-2" data-name="Слой 1">
    <g>
      <path d="M76.3,28.47c-1.25-1.25-2.83-1.91-4.57-1.91H13.16c-.24,0-.38-.13-.38-.38v-13.02c0-.24.13-.38.38-.38h57.63c.08,0,.17.01.32.16l4.89,4.89c.4.4.86.6,1.38.6h4.04c1.07,0,1.88-.81,1.88-1.88V1.88c0-1.07-.81-1.88-1.88-1.88H14.38c-1.74,0-3.32.66-4.57,1.91L1.91,9.81c-1.25,1.25-1.91,2.83-1.91,4.57v10.58c0,1.74.66,3.32,1.91,4.57l7.9,7.9c1.25,1.25,2.83,1.91,4.57,1.91h58.57c.24,0,.38.13.38.38v13.03c0,.24-.13.38-.38.38H15.32c-.08,0-.17-.01-.32-.16l-4.89-4.89c-.4-.4-.86-.6-1.38-.6h-4.04c-1.07,0-1.88.81-1.88,1.88v14.67c0,1.07.81,1.88,1.88,1.88h67.03c1.74,0,3.32-.66,4.57-1.91l7.9-7.9c1.25-1.25,1.91-2.83,1.91-4.57v-10.58c0-1.74-.66-3.32-1.91-4.57l-7.9-7.9Z"/>
      <path d="M180.68,1.93c-1.13-1.23-2.8-1.93-4.6-1.93h-57.35c-1.76,0-3.36.69-4.48,1.91l-8.02,7.92c-1.22,1.33-1.89,2.94-1.89,4.55v37.14c0,1.61.67,3.22,1.91,4.58l7.97,7.87c1.14,1.25,2.74,1.94,4.5,1.94h57.35c1.79,0,3.47-.71,4.57-1.91l8.02-7.92c1.17-1.28,1.8-2.85,1.8-4.55V14.38c0-1.69-.62-3.27-1.82-4.58l-7.96-7.87ZM177.68,13.16v39.59c0,.24-.13.38-.38.38h-59.79c-.16,0-.38-.14-.38-.38V13.16c0-.23.22-.38.38-.38h59.79c.24,0,.38.13.38.38Z"/>
      <path d="M218.83,48.08c-.14-.14-.16-.23-.16-.32v-8.04c0-.24.13-.38.38-.38h68.25c1.07,0,1.88-.81,1.88-1.88v-9.02c0-1.07-.81-1.88-1.88-1.88h-63.27c-.08,0-.17-.01-.32-.16l-4.89-4.89c-.14-.14-.16-.24-.16-.32v-8.04c0-.24.13-.38.38-.38h73.89c1.07,0,1.88-.81,1.88-1.88V1.88c0-1.07-.81-1.88-1.88-1.88h-82.35c-1.07,0-1.88.81-1.88,1.88v62.15c0,1.07.81,1.88,1.88,1.88h11.84c1.07,0,1.88-.81,1.88-1.88v-9.68c0-.52-.2-.98-.6-1.38l-4.89-4.89Z"/>
      <path d="M347.85,8.93v55.1c0,1.07.81,1.88,1.88,1.88h9.03c1.07,0,1.88-.81,1.88-1.88V8.93c0-.24.13-.38.38-.38h4.04c.08,0,.17.01.32.16l4.89,4.89c.4.4.86.6,1.38.6h23.78c1.07,0,1.88-.81,1.88-1.88V1.88c0-1.07-.81-1.88-1.88-1.88h-82.35c-1.07,0-1.88.81-1.88,1.88v10.43c0,1.07.81,1.88,1.88,1.88h23.78c.52,0,.98-.2,1.38-.6l4.89-4.89c.14-.14.24-.16.32-.16h4.04c.24,0,.38.13.38.38Z"/>
      <path d="M76.3,95.92c-1.25-1.25-2.83-1.91-4.57-1.91H1.88c-1.07,0-1.88.81-1.88,1.88v62.15c0,1.07.81,1.88,1.88,1.88h69.85c1.74,0,3.32-.66,4.57-1.91l7.9-7.9c1.25-1.25,1.91-2.83,1.91-4.57v-12.46c0-.52-.2-.98-.6-1.38l-4.89-4.89c-.14-.14-.16-.23-.16-.31v-4.04c0-.24.13-.38.38-.38h3.38c1.07,0,1.88-.81,1.88-1.88v-11.8c0-1.74-.66-3.32-1.91-4.57l-7.9-7.9ZM7.14,133.73c0-.24.13-.38.38-.38h65.43c.24,0,.38.13.38.38v13.03c0,.24-.13.38-.38.38H12.5c-.08,0-.17-.01-.32-.16l-4.89-4.89c-.14-.14-.16-.23-.16-.32v-8.04ZM12.18,120.42l-4.89-4.89c-.14-.14-.16-.24-.16-.32v-8.04c0-.24.13-.38.38-.38h65.43c.24,0,.38.13.38.38v13.02c0,.24-.13.38-.38.38H12.5c-.08,0-.17-.01-.32-.16Z"/>
      <path d="M180.65,95.92c-1.25-1.25-2.83-1.91-4.57-1.91h-69.85c-1.07,0-1.88.81-1.88,1.88v62.15c0,1.07.81,1.88,1.88,1.88h9.02c1.07,0,1.88-.81,1.88-1.88v-19.61c0-.24.13-.38.38-.38h20.31c.15,0,.34.06.54.13l39.24,21.45.12.05c.25.08.74.23,1.18.23h9.68c1.07,0,1.88-.81,1.88-1.88v-5.45c0-.76-.44-1.39-1.17-1.71l-22.51-12.82h9.3c1.74,0,3.32-.66,4.54-1.88l7.93-6.99c1.25-1.25,1.91-2.83,1.91-4.57v-16.22c0-1.74-.66-3.32-1.91-4.57l-7.9-7.9ZM116.54,120.42l-4.89-4.89c-.14-.14-.16-.24-.16-.32v-8.04c0-.24.13-.38.38-.38h65.43c.24,0,.38.13.38.38v18.67c0,.24-.13.38-.38.38h-59.79c-.24,0-.38-.13-.38-.38v-4.04c0-.52-.2-.98-.6-1.38Z"/>
      <rect x="208.71" y="94.01" width="12.78" height="65.91" rx="1.88" ry="1.88"/>
      <path d="M323.96,94.01h-69.85c-1.74,0-3.32.66-4.57,1.91l-7.9,7.9c-1.25,1.25-1.91,2.83-1.91,4.57v37.14c0,1.74.66,3.32,1.91,4.57l7.9,7.9c1.25,1.25,2.83,1.91,4.57,1.91h59.23c.52,0,.98-.2,1.38-.6l10.53-10.53c.39-.4.59-.86.59-1.38v-24.96c0-1.07-.81-1.88-1.88-1.88h-59.79c-1.07,0-1.88.81-1.88,1.88v9.02c0,1.07.81,1.88,1.88,1.88h26.6c.52,0,.98-.2,1.38-.6l4.89-4.89c.15-.15.24-.16.32-.16h15.32c.24,0,.38.13.38.38v18.67c0,.24-.13.38-.38.38h-59.79c-.24,0-.38-.13-.38-.38v-39.59c0-.24.13-.38.38-.38h60.45c.08,0,.17.01.32.16l4.89,4.89c.39.4.86.6,1.38.6h4.04c1.07,0,1.88-.81,1.88-1.88v-14.67c0-1.07-.81-1.88-1.88-1.88Z"/>
      <path d="M420.39,95.92c-1.25-1.25-2.83-1.91-4.57-1.91h-57.35c-1.74,0-3.32.66-4.57,1.91l-7.9,7.9c-1.25,1.25-1.91,2.83-1.91,4.57v49.65c0,1.07.81,1.88,1.88,1.88h11.84c1.07,0,1.88-.81,1.88-1.88v-9.68c0-.52-.2-.98-.6-1.38l-4.89-4.89c-.14-.14-.16-.23-.16-.32v-8.04c0-.24.13-.38.38-.38h65.43c.24,0,.38.13.38.38v8.04c0,.08-.01.17-.16.32l-4.89,4.89c-.4.4-.6.86-.6,1.38v9.68c0,1.07.81,1.88,1.88,1.88h11.84c1.07,0,1.88-.81,1.88-1.88v-49.65c0-1.74-.66-3.32-1.91-4.57l-7.9-7.9ZM420.24,112.16v8.04c0,.24-.13.38-.38.38h-65.43c-.24,0-.38-.13-.38-.38v-8.04c0-.08.01-.17.16-.32l4.89-4.89c.15-.15.24-.16.32-.16h55.47c.08,0,.17.01.32.16l4.89,4.89c.14.14.16.24.16.32Z"/>
      <path d="M524.74,95.92c-1.25-1.25-2.83-1.91-4.57-1.91h-69.85c-1.07,0-1.88.81-1.88,1.88v62.15c0,1.07.81,1.88,1.88,1.88h69.85c1.74,0,3.32-.66,4.57-1.91l7.9-7.9c1.25-1.25,1.91-2.83,1.91-4.57v-37.14c0-1.74-.66-3.32-1.91-4.57l-7.9-7.9ZM460.63,120.42l-4.89-4.89c-.14-.14-.16-.24-.16-.32v-8.04c0-.24.13-.38.38-.38h65.43c.24,0,.38.13.38.38v39.59c0,.24-.13.38-.38.38h-59.79c-.24,0-.38-.13-.38-.38v-24.96c0-.52-.2-.98-.6-1.38Z"/>
      <path d="M637,103.82l-7.9-7.9c-1.25-1.25-2.83-1.91-4.57-1.91h-57.35c-1.74,0-3.32.66-4.57,1.91l-7.9,7.9c-1.25,1.25-1.91,2.83-1.91,4.57v49.65c0,1.07.81,1.88,1.88,1.88h11.84c1.07,0,1.88-.81,1.88-1.88v-9.68c0-.52-.2-.98-.6-1.38l-4.89-4.89c-.14-.14-.16-.23-.16-.32v-8.04c0-.24.13-.38.38-.38h65.43c.24,0,.38.13.38.38v8.04c0,.08-.01.17-.16.32l-4.89,4.89c-.4.4-.6.86-.6,1.38v9.68c0,1.07.81,1.88,1.88,1.88h11.85c1.07,0,1.88-.81,1.88-1.88v-49.65c0-1.74-.66-3.32-1.91-4.57ZM628.95,112.16v8.04c0,.24-.13.38-.38.38h-65.43c-.24,0-.38-.13-.38-.38v-8.04c0-.08.01-.17.16-.32l4.89-4.89c.15-.15.24-.16.32-.16h55.47c.08,0,.17.01.32.16l4.89,4.89c.14.14.16.24.16.32Z"/>
    </g>
  </g>
</svg>