<?xml version="1.0" encoding="UTF-8"?>
<svg fill="#FFFFFF" id="_Слой_2" data-name="Слой 2" xmlns="http://www.w3.org/2000/svg" viewBox="0 0 704.44 185.62">
  <defs>
    <style>
      .cls-1 {
        font-family: Furore, Furore;
        font-size: 88.93px;
        letter-spacing: .09em;
      }
    </style>
  </defs>
  <g id="_Слой_1-2" data-name="Слой 1">
    <polygon points="52.1 173.23 0 173.23 0 157.23 36.1 157.23 36.1 112.14 54.97 93.27 36.1 74.4 36.1 29.31 0 29.31 0 13.31 52.1 13.31 52.1 67.77 77.59 93.27 52.1 118.77 52.1 173.23"/>
    <circle cx="14.36" cy="61.72" r="10.5"/>
    <polygon points="112.86 173.23 61.76 173.23 61.76 157.23 96.86 157.23 96.86 112.14 115.73 93.27 96.86 74.4 96.86 29.31 61.76 29.31 61.76 13.31 112.86 13.31 112.86 67.77 138.35 93.27 112.86 118.77 112.86 173.23"/>
    <circle cx="75.12" cy="61.72" r="10.5"/>
    <polygon points="173.62 173.23 122.52 173.23 122.52 157.23 157.62 157.23 157.62 112.14 176.49 93.27 157.62 74.4 157.62 29.31 122.52 29.31 122.52 13.31 173.62 13.31 173.62 67.77 199.12 93.27 173.62 118.77 173.62 173.23"/>
    <circle cx="135.88" cy="61.72" r="10.5"/>
    <text class="cls-1" transform="translate(249.29 75.59)"><tspan x="0" y="0">SOFT</tspan><tspan x="0" y="97.58">BRIGADA</tspan></text>
  </g>
</svg>