<?xml version="1.0" encoding="UTF-8"?>
<svg id="_Слой_2" data-name="Слой 2" xmlns="http://www.w3.org/2000/svg" viewBox="0 0 729.39 190.57">
  <defs>
    <style>
      .cls-1 {
        letter-spacing: .09em;
      }

      .cls-2 {
        font-family: Bedstead-Extended, Bedstead;
        font-size: 87.82px;
        stroke: #000;
        stroke-miterlimit: 10;
        stroke-width: 2px;
      }

      .cls-3 {
        letter-spacing: -.03em;
      }

      .cls-4 {
        letter-spacing: .09em;
      }
    </style>
  </defs>
  <g id="_Слой_1-2" data-name="Слой 1">
    <polygon points="52.1 173.02 0 173.02 0 157.02 36.1 157.02 36.1 111.93 54.97 93.06 36.1 74.19 36.1 29.09 0 29.09 0 13.09 52.1 13.09 52.1 67.56 77.59 93.06 52.1 118.55 52.1 173.02"/>
    <circle cx="14.36" cy="61.51" r="10.5"/>
    <polygon points="112.86 173.02 61.76 173.02 61.76 157.02 96.86 157.02 96.86 111.93 115.73 93.06 96.86 74.19 96.86 29.09 61.76 29.09 61.76 13.09 112.86 13.09 112.86 67.56 138.35 93.06 112.86 118.55 112.86 173.02"/>
    <circle cx="75.12" cy="61.51" r="10.5"/>
    <polygon points="173.62 173.02 122.52 173.02 122.52 157.02 157.62 157.02 157.62 111.93 176.49 93.06 157.62 74.19 157.62 29.09 122.52 29.09 122.52 13.09 173.62 13.09 173.62 67.56 199.12 93.06 173.62 118.55 173.62 173.02"/>
    <circle cx="135.88" cy="61.51" r="10.5"/>
    <text class="cls-2" transform="translate(241.87 75.64)"><tspan class="cls-4"><tspan x="0" y="0">SOFT</tspan></tspan><tspan class="cls-4" x="0" y="96.36">B</tspan><tspan class="cls-3" x="73.77" y="96.36">RI</tspan><tspan class="cls-1" x="199.35" y="96.36">GADA</tspan></text>
  </g>
</svg>