<?xml version="1.0" encoding="UTF-8"?>
<svg id="_Слой_2" data-name="Слой 2" xmlns="http://www.w3.org/2000/svg" viewBox="0 0 756.38 160.86">
  <g id="_Слой_1-2" data-name="Слой 1">
    <path d="M24.1,159.93H0v-16h24.1c6.62,0,12-5.38,12-12v-33.09l18.87-18.87-18.87-18.87V28c0-6.62-5.38-12-12-12H0V0h24.1C39.54,0,52.1,12.57,52.1,28v26.46l25.5,25.5-25.5,25.5v26.46c0,15.44-12.56,28-28,28Z"/>
    <circle cx="14.36" cy="48.42" r="10.5"/>
    <path d="M138.36,79.97l-25.5,25.49v26.47c0,15.44-12.56,28-28,28h-33.64c4.53-4.39,8-9.86,9.99-16h23.65c6.62,0,12-5.38,12-12v-33.09l18.87-18.87-18.87-18.87V28c0-6.61-5.38-12-12-12h-23.65c-1.99-6.14-5.46-11.61-9.99-16h33.64c15.44,0,28,12.57,28,28v26.47l25.5,25.5Z"/>
    <path d="M199.12,79.97l-25.5,25.49v26.47c0,15.44-12.56,28-28,28h-33.64c4.53-4.39,8-9.86,9.99-16h23.65c6.62,0,12-5.38,12-12v-33.09l18.87-18.87-18.87-18.87V28c0-6.61-5.38-12-12-12h-23.65c-1.99-6.14-5.46-11.61-9.99-16h33.64c15.44,0,28,12.57,28,28v26.47l25.5,25.5Z"/>
    <circle cx="75.12" cy="48.42" r="10.5"/>
    <circle cx="135.88" cy="48.42" r="10.5"/>
    <g>
      <path d="M293.69,59.3c1.93-1.93,2.91-4.3,2.91-7.03v-16.9c0-2.73-.98-5.1-2.91-7.04-1.94-1.93-4.3-2.91-7.03-2.91h-22.64v-13.89h32.58V.08h-35.29c-2.73,0-5.1.98-7.03,2.91-1.93,1.93-2.91,4.3-2.91,7.03v16.89c0,2.74.98,5.1,2.91,7.03,1.93,1.93,4.3,2.91,7.04,2.91h22.64v13.9h-32.58v11.45h35.29c2.73,0,5.1-.98,7.03-2.91Z"/>
      <path d="M373.94,59.3c1.93-1.93,2.91-4.3,2.91-7.03V10.03c0-2.73-.98-5.1-2.91-7.04-1.94-1.93-4.3-2.91-7.03-2.91h-33.79c-2.73,0-5.1.98-7.03,2.91-1.93,1.93-2.91,4.3-2.91,7.03v42.24c0,2.74.98,5.1,2.91,7.03,1.93,1.93,4.3,2.91,7.04,2.91h33.79c2.73,0,5.1-.98,7.03-2.91ZM364.2,11.53v39.24h-28.38V11.53h28.38Z"/>
      <polygon points="405.84 11.53 412.16 11.53 405.84 17.85 405.84 62.21 418.49 62.21 418.49 45.32 451.07 45.32 451.07 33.87 423.61 33.87 418.49 38.99 418.49 11.53 451.07 11.53 451.07 .08 405.84 .08 405.84 11.53"/>
      <polygon points="465.57 11.53 483.07 11.53 483.07 62.21 495.72 62.21 495.72 11.53 513.22 11.53 513.22 .08 465.57 .08 465.57 11.53"/>
      <path d="M299.02,123.23v-15.47c0-2.73-.98-5.1-2.91-7.03-1.93-1.93-4.3-2.91-7.03-2.91h-35.29v11.45h6.33l-6.33,6.33v44.36h43.74c2.73,0,5.1-.98,7.03-2.91,1.93-1.93,2.91-4.3,2.91-7.03v-16.9c0-2.72-.93-5.08-2.77-7.01-1.57-1.65-3.47-2.61-5.68-2.87ZM286.37,123.15h-14.81l-5.12,5.12v-19.01h19.93v13.89ZM294.81,134.6v13.9h-28.38v-13.9h28.38Z"/>
      <path d="M378.37,141.84c4.54,0,9.95-1.94,9.95-11.15v-22.93c0-2.65-1-5-2.97-6.97-1.97-1.97-4.32-2.97-6.97-2.97h-43.74v11.45h6.29l-6.29,6.2v44.49h12.65v-28.07l27.8,28.07h16.58l-18.23-18.1h4.94ZM347.29,109.26h28.38v22.34h-28.38v-22.34Z"/>
      <rect x="414.89" y="97.81" width="12.65" height="62.13"/>
      <path d="M459.49,100.79c-1.97,1.97-2.97,4.32-2.97,6.97v42.24c0,2.65,1,5,2.97,6.97,1.97,1.97,4.32,2.97,6.97,2.97h25.96l5.12-5.12v5.12h12.65v-36.79h-19.02l-11.45,11.45h17.81v13.9h-28.38v-39.24h41.03v-11.45h-43.74c-2.65,0-5,1-6.97,2.97Z"/>
      <path d="M539.68,100.73c-1.93,1.93-2.91,4.3-2.91,7.03v52.18h12.65v-16.9h28.38v16.9h12.65v-62.13h-43.74c-2.73,0-5.1.98-7.03,2.91ZM577.8,131.6h-23.26l-5.12,5.12v-27.46h28.38v22.34Z"/>
      <path d="M663.77,97.81h-43.74v11.45h6.33l-6.33,6.33v44.36h9.65v.92l.92-.92h33.17c2.65,0,5-1,6.97-2.97,1.97-1.97,2.97-4.32,2.97-6.97v-42.24c0-2.65-1-5-2.97-6.97-1.97-1.97-4.32-2.97-6.97-2.97ZM632.69,109.26h28.38v39.24h-23.26l-5.12,5.12v-44.36Z"/>
      <path d="M712.65,97.81c-2.73,0-5.1.98-7.03,2.91-1.93,1.93-2.91,4.3-2.91,7.03v52.18h12.65v-16.9h28.38v16.9h12.65v-62.13h-43.74ZM743.73,131.6h-23.26l-5.12,5.12v-27.46h28.38v22.34Z"/>
    </g>
  </g>
</svg>