<?xml version="1.0" encoding="UTF-8"?>
<svg id="_Слой_2" data-name="Слой 2" xmlns="http://www.w3.org/2000/svg" viewBox="0 0 704.44 185.62">
  <defs>
    <style>
      .cls-1 {
        font-family: Furore, Furore;
        font-size: 88.93px;
        letter-spacing: .09em;
      }
    </style>
  </defs>
  <g id="_Слой_1-2" data-name="Слой 1">
    <text class="cls-1" transform="translate(249.29 75.59)"><tspan x="0" y="0">SOFT</tspan><tspan x="0" y="97.58">BRIGADA</tspan></text>
    <polygon points="32.41 173.23 0 173.23 0 157.23 25.78 157.23 36.1 146.92 36.1 112.14 54.97 93.27 36.1 74.4 36.1 39.62 25.78 29.31 0 29.31 0 13.31 32.41 13.31 52.1 33 52.1 67.77 77.59 93.27 52.1 118.77 52.1 153.55 32.41 173.23"/>
    <circle cx="14.36" cy="61.73" r="10.5"/>
    <polygon points="138.36 93.27 112.86 118.77 112.86 153.55 93.18 173.23 47.56 173.23 63.56 157.23 86.55 157.23 96.86 146.92 96.86 112.14 115.73 93.27 96.86 74.4 96.86 39.62 86.55 29.31 63.56 29.31 47.56 13.31 93.18 13.31 112.86 32.99 112.86 67.77 138.36 93.27"/>
    <polygon points="199.12 93.27 173.62 118.77 173.62 153.55 153.94 173.23 108.32 173.23 124.32 157.23 147.31 157.23 157.62 146.92 157.62 112.14 176.49 93.27 157.62 74.4 157.62 39.62 147.31 29.31 124.32 29.31 108.32 13.31 153.94 13.31 173.62 32.99 173.62 67.77 199.12 93.27"/>
    <circle cx="75.12" cy="61.73" r="10.5"/>
    <circle cx="135.88" cy="61.73" r="10.5"/>
  </g>
</svg>