<?xml version="1.0" encoding="UTF-8"?>
<svg id="_Слой_2" data-name="Слой 2" xmlns="http://www.w3.org/2000/svg" viewBox="0 0 477.53 159.83">
  <g id="_Слой_1-2" data-name="Слой 1">
    <g>
      <polygon points="14.37 0 0 11.5 0 25.63 14.37 37.13 36.32 37.13 43.91 43.19 43.91 46.62 36.32 52.69 20.56 52.69 9.58 43.91 0 43.91 0 51.97 14.37 63.47 42.51 63.47 56.88 51.97 56.88 37.84 42.51 26.34 20.56 26.34 12.98 20.28 12.98 16.85 20.56 10.78 36.32 10.78 47.3 19.56 56.88 19.56 56.88 11.5 42.51 0 14.37 0"/>
      <path d="M88.14,0l-14.37,11.5v40.48l14.37,11.5h28.14l14.37-11.5V11.5L116.28,0h-28.14ZM94.33,52.69l-7.58-6.07v-29.77l7.58-6.07h15.76l7.58,6.07v29.77l-7.58,6.07h-15.76Z"/>
      <polygon points="160.51 10.78 204.42 10.78 204.42 0 147.53 0 147.53 63.47 160.51 63.47 160.51 37.13 193.44 37.13 193.44 26.34 160.51 26.34 160.51 10.78"/>
      <polygon points="278.19 0 221.3 0 221.3 10.78 243.26 10.78 243.26 63.47 256.23 63.47 256.23 10.78 278.19 10.78 278.19 0"/>
      <path d="M0,96.36v63.47h42.51l14.37-11.5v-14.13l-7.63-6.11,7.63-6.11v-14.13l-14.37-11.5H0ZM12.98,149.05v-15.56h23.35l7.58,6.07v3.43l-7.58,6.07H12.98ZM12.98,122.71v-15.56h23.35l7.58,6.07v3.43l-7.58,6.07H12.98Z"/>
      <path d="M73.77,96.36v63.47h12.98v-26.34h8.98v6.07l25.35,20.28h9.58v-8.07l-21.95-17.56v-.71h7.58l14.37-11.5v-14.13l-14.37-11.5h-42.51ZM86.74,107.14h23.35l7.58,6.07v3.43l-7.58,6.07h-23.35v-15.56Z"/>
      <polygon points="147.53 107.14 158.51 107.14 158.51 149.05 147.53 149.05 147.53 159.83 182.46 159.83 182.46 149.05 171.49 149.05 171.49 107.14 182.46 107.14 182.46 96.36 147.53 96.36 147.53 107.14"/>
      <polygon points="213.72 96.36 199.35 107.86 199.35 148.34 213.72 159.83 256.23 159.83 256.23 131.49 232.28 131.49 232.28 142.27 243.25 142.27 243.25 149.05 219.91 149.05 212.32 142.98 212.32 113.21 219.91 107.14 235.67 107.14 246.65 115.92 256.23 115.92 256.23 107.86 241.86 96.36 213.72 96.36"/>
      <path d="M298.46,96.36l-25.35,20.28v43.19h12.98v-17.56h30.93v17.56h12.98v-43.19l-25.35-20.28h-6.19ZM317.02,121.99v9.5h-30.93v-9.5l15.47-12.37,15.46,12.37Z"/>
      <path d="M346.88,96.36v63.47h42.51l14.37-11.5v-40.48l-14.37-11.5h-42.51ZM359.86,149.05v-41.91h23.35l7.58,6.07v29.77l-7.58,6.07h-23.35Z"/>
      <path d="M452.19,96.36h-6.19l-25.35,20.28v43.19h12.98v-17.56h30.93v17.56h12.98v-43.19l-25.35-20.28ZM464.56,121.99v9.5h-30.93v-9.5l15.47-12.37,15.46,12.37Z"/>
    </g>
  </g>
</svg>