<?xml version="1.0" encoding="UTF-8"?>
<svg id="_Слой_2" data-name="Слой 2" xmlns="http://www.w3.org/2000/svg" viewBox="0 0 505.01 160.78">
  <g id="_Слой_1-2" data-name="Слой 1">
    <g>
      <path d="M42.32,59.22c1.93-1.93,2.91-4.3,2.91-7.03v-16.9c0-2.73-.98-5.1-2.91-7.04-1.94-1.93-4.3-2.91-7.03-2.91H12.65v-13.89h32.58V0H9.95c-2.73,0-5.1.98-7.03,2.91C.98,4.85,0,7.21,0,9.95v16.89c0,2.74.98,5.1,2.91,7.03,1.93,1.93,4.3,2.91,7.04,2.91h22.64v13.9H0v11.45h35.29c2.73,0,5.1-.98,7.03-2.91Z"/>
      <path d="M122.57,59.22c1.93-1.93,2.91-4.3,2.91-7.03V9.95c0-2.73-.98-5.1-2.91-7.04-1.94-1.93-4.3-2.91-7.03-2.91h-33.79c-2.73,0-5.1.98-7.03,2.91-1.93,1.93-2.91,4.3-2.91,7.03v42.24c0,2.74.98,5.1,2.91,7.03,1.93,1.93,4.3,2.91,7.04,2.91h33.79c2.73,0,5.1-.98,7.03-2.91ZM112.83,11.45v39.24h-28.38V11.45h28.38Z"/>
      <polygon points="154.47 11.45 160.79 11.45 154.47 17.77 154.47 62.13 167.12 62.13 167.12 45.24 199.7 45.24 199.7 33.79 172.24 33.79 167.12 38.91 167.12 11.45 199.7 11.45 199.7 0 154.47 0 154.47 11.45"/>
      <polygon points="214.2 11.45 231.7 11.45 231.7 62.13 244.35 62.13 244.35 11.45 261.85 11.45 261.85 0 214.2 0 214.2 11.45"/>
      <path d="M47.65,123.15v-15.47c0-2.73-.98-5.1-2.91-7.03-1.93-1.93-4.3-2.91-7.03-2.91H2.41v11.45h6.33l-6.33,6.33v44.36h43.74c2.73,0,5.1-.98,7.03-2.91,1.93-1.93,2.91-4.3,2.91-7.03v-16.9c0-2.72-.93-5.08-2.77-7.01-1.57-1.65-3.47-2.61-5.68-2.87ZM35,123.07h-14.81l-5.12,5.12v-19.01h19.93v13.89ZM43.44,134.52v13.9H15.07v-13.9h28.38Z"/>
      <path d="M127,141.76c4.54,0,9.95-1.94,9.95-11.15v-22.93c0-2.65-1-5-2.97-6.97-1.97-1.97-4.32-2.97-6.97-2.97h-43.74v11.45h6.29l-6.29,6.2v44.49h12.65v-28.07l27.8,28.07h16.58l-18.23-18.1h4.94ZM95.92,109.18h28.38v22.34h-28.38v-22.34Z"/>
      <rect x="163.52" y="97.73" width="12.65" height="62.13"/>
      <path d="M208.12,100.71c-1.97,1.97-2.97,4.32-2.97,6.97v42.24c0,2.65,1,5,2.97,6.97,1.97,1.97,4.32,2.97,6.97,2.97h25.96l5.12-5.12v5.12h12.65v-36.79h-19.02l-11.45,11.45h17.81v13.9h-28.38v-39.24h41.03v-11.45h-43.74c-2.65,0-5,1-6.97,2.97Z"/>
      <path d="M288.31,100.65c-1.93,1.93-2.91,4.3-2.91,7.03v52.18h12.65v-16.9h28.38v16.9h12.65v-62.13h-43.74c-2.73,0-5.1.98-7.03,2.91ZM326.43,131.52h-23.26l-5.12,5.12v-27.46h28.38v22.34Z"/>
      <path d="M412.4,97.73h-43.74v11.45h6.33l-6.33,6.33v44.36h9.65v.92l.92-.92h33.17c2.65,0,5-1,6.97-2.97,1.97-1.97,2.97-4.32,2.97-6.97v-42.24c0-2.65-1-5-2.97-6.97-1.97-1.97-4.32-2.97-6.97-2.97ZM381.32,109.18h28.38v39.24h-23.26l-5.12,5.12v-44.36Z"/>
      <path d="M461.28,97.73c-2.73,0-5.1.98-7.03,2.91-1.93,1.93-2.91,4.3-2.91,7.03v52.18h12.65v-16.9h28.38v16.9h12.65v-62.13h-43.74ZM492.36,131.52h-23.26l-5.12,5.12v-27.46h28.38v22.34Z"/>
    </g>
  </g>
</svg>