<?xml version="1.0" encoding="UTF-8"?>
<svg id="_Слой_2" data-name="Слой 2" xmlns="http://www.w3.org/2000/svg" viewBox="0 0 700.47 185.62">
  <defs>
    <style>
      .cls-1 {
        font-family: Furore, Furore;
        font-size: 88.93px;
        letter-spacing: .09em;
      }
    </style>
  </defs>
  <g id="_Слой_1-2" data-name="Слой 1">
    <path d="M24.1,173.23H0v-16h24.1c6.62,0,12-5.38,12-12v-33.09l18.87-18.87-18.87-18.87v-33.09c0-6.62-5.38-12-12-12H0V13.31h24.1c15.44,0,28,12.56,28,28v26.46l25.5,25.5-25.5,25.5v26.46c0,15.44-12.56,28-28,28Z"/>
    <circle cx="14.36" cy="61.72" r="10.5"/>
    <path d="M138.36,93.27l-25.5,25.49v26.47c0,15.44-12.56,28-28,28h-33.64c4.53-4.39,8-9.86,9.99-16h23.65c6.62,0,12-5.38,12-12v-33.09l18.87-18.87-18.87-18.87v-33.1c0-6.61-5.38-12-12-12h-23.65c-1.99-6.14-5.46-11.61-9.99-16h33.64c15.44,0,28,12.57,28,28v26.47l25.5,25.5Z"/>
    <path d="M199.12,93.27l-25.5,25.49v26.47c0,15.44-12.56,28-28,28h-33.64c4.53-4.39,8-9.86,9.99-16h23.65c6.62,0,12-5.38,12-12v-33.09l18.87-18.87-18.87-18.87v-33.1c0-6.61-5.38-12-12-12h-23.65c-1.99-6.14-5.46-11.61-9.99-16h33.64c15.44,0,28,12.57,28,28v26.47l25.5,25.5Z"/>
    <circle cx="75.12" cy="61.72" r="10.5"/>
    <circle cx="135.88" cy="61.72" r="10.5"/>
    <text class="cls-1" transform="translate(245.32 75.59)"><tspan x="0" y="0">SOFT</tspan><tspan x="0" y="97.58">BRIGADA</tspan></text>
  </g>
</svg>