<?xml version="1.0" encoding="UTF-8"?>
<svg id="_Слой_2" data-name="Слой 2" xmlns="http://www.w3.org/2000/svg" viewBox="0 0 729.38 159.92">
  <g id="_Слой_1-2" data-name="Слой 1">
    <g>
      <polygon points="266.22 .07 251.85 11.57 251.85 25.7 266.22 37.2 288.18 37.2 295.76 43.26 295.76 46.69 288.18 52.76 272.41 52.76 261.43 43.98 251.85 43.98 251.85 52.04 266.22 63.54 294.37 63.54 308.74 52.04 308.74 37.91 294.37 26.42 272.41 26.42 264.83 20.35 264.83 16.92 272.41 10.85 288.18 10.85 299.15 19.63 308.74 19.63 308.74 11.57 294.37 .07 266.22 .07"/>
      <path d="M339.99.07l-14.37,11.5v40.48l14.37,11.5h28.14l14.37-11.5V11.57L368.13.07h-28.14ZM346.18,52.76l-7.58-6.07v-29.77l7.58-6.07h15.76l7.58,6.07v29.77l-7.58,6.07h-15.76Z"/>
      <polygon points="412.36 10.85 456.27 10.85 456.27 .07 399.39 .07 399.39 63.54 412.36 63.54 412.36 37.2 445.29 37.2 445.29 26.42 412.36 26.42 412.36 10.85"/>
      <polygon points="530.04 .07 473.15 .07 473.15 10.85 495.11 10.85 495.11 63.54 508.08 63.54 508.08 10.85 530.04 10.85 530.04 .07"/>
      <path d="M251.85,96.43v63.47h42.51l14.37-11.5v-14.13l-7.63-6.11,7.63-6.11v-14.13l-14.37-11.5h-42.51ZM264.83,149.12v-15.56h23.35l7.58,6.07v3.43l-7.58,6.07h-23.35ZM264.83,122.78v-15.56h23.35l7.58,6.07v3.43l-7.58,6.07h-23.35Z"/>
      <path d="M325.62,96.43v63.47h12.98v-26.34h8.98v6.07l25.35,20.28h9.58v-8.07l-21.95-17.56v-.71h7.58l14.37-11.5v-14.13l-14.37-11.5h-42.51ZM338.6,107.21h23.35l7.58,6.07v3.43l-7.58,6.07h-23.35v-15.56Z"/>
      <polygon points="399.39 107.21 410.36 107.21 410.36 149.12 399.39 149.12 399.39 159.9 434.32 159.9 434.32 149.12 423.34 149.12 423.34 107.21 434.32 107.21 434.32 96.43 399.39 96.43 399.39 107.21"/>
      <polygon points="465.57 96.43 451.2 107.93 451.2 148.41 465.57 159.9 508.08 159.9 508.08 131.56 484.13 131.56 484.13 142.34 495.11 142.34 495.11 149.12 471.76 149.12 464.18 143.05 464.18 113.28 471.76 107.21 487.52 107.21 498.5 116 508.08 116 508.08 107.93 493.71 96.43 465.57 96.43"/>
      <path d="M550.31,96.43l-25.35,20.28v43.19h12.98v-17.56h30.93v17.56h12.98v-43.19l-25.35-20.28h-6.19ZM568.87,122.06v9.5h-30.93v-9.5l15.47-12.37,15.46,12.37Z"/>
      <path d="M598.73,96.43v63.47h42.51l14.37-11.5v-40.48l-14.37-11.5h-42.51ZM611.71,149.12v-41.91h23.35l7.58,6.07v29.77l-7.58,6.07h-23.35Z"/>
      <path d="M704.04,96.43h-6.19l-25.35,20.28v43.19h12.98v-17.56h30.93v17.56h12.98v-43.19l-25.35-20.28ZM716.41,122.06v9.5h-30.93v-9.5l15.47-12.37,15.46,12.37Z"/>
    </g>
    <polygon points="32.41 159.92 0 159.92 0 143.92 25.78 143.92 36.1 133.61 36.1 98.83 54.97 79.96 36.1 61.09 36.1 26.31 25.78 16 0 16 0 0 32.41 0 52.1 19.69 52.1 54.46 77.59 79.96 52.1 105.46 52.1 140.24 32.41 159.92"/>
    <circle cx="14.36" cy="48.42" r="10.5"/>
    <polygon points="138.36 79.96 112.86 105.46 112.86 140.24 93.18 159.92 47.56 159.92 63.56 143.92 86.55 143.92 96.86 133.61 96.86 98.83 115.73 79.96 96.86 61.09 96.86 26.31 86.55 16 63.56 16 47.56 0 93.18 0 112.86 19.68 112.86 54.46 138.36 79.96"/>
    <polygon points="199.12 79.96 173.62 105.46 173.62 140.24 153.94 159.92 108.32 159.92 124.32 143.92 147.31 143.92 157.62 133.61 157.62 98.83 176.49 79.96 157.62 61.09 157.62 26.31 147.31 16 124.32 16 108.32 0 153.94 0 173.62 19.68 173.62 54.46 199.12 79.96"/>
    <circle cx="75.12" cy="48.42" r="10.5"/>
    <circle cx="135.88" cy="48.42" r="10.5"/>
  </g>
</svg>