<?xml version="1.0" encoding="UTF-8"?>
<svg id="_Слой_2" data-name="Слой 2" xmlns="http://www.w3.org/2000/svg" viewBox="0 0 729.38 159.93">
  <g id="_Слой_1-2" data-name="Слой 1">
    <path d="M24.1,159.93H0v-16h24.1c6.62,0,12-5.38,12-12v-33.09l18.87-18.87-18.87-18.87V28c0-6.62-5.38-12-12-12H0V0h24.1C39.54,0,52.1,12.57,52.1,28v26.46l25.5,25.5-25.5,25.5v26.46c0,15.44-12.56,28-28,28Z"/>
    <circle cx="14.36" cy="48.42" r="10.5"/>
    <path d="M138.36,79.97l-25.5,25.49v26.47c0,15.44-12.56,28-28,28h-33.64c4.53-4.39,8-9.86,9.99-16h23.65c6.62,0,12-5.38,12-12v-33.09l18.87-18.87-18.87-18.87V28c0-6.61-5.38-12-12-12h-23.65c-1.99-6.14-5.46-11.61-9.99-16h33.64c15.44,0,28,12.57,28,28v26.47l25.5,25.5Z"/>
    <path d="M199.12,79.97l-25.5,25.49v26.47c0,15.44-12.56,28-28,28h-33.64c4.53-4.39,8-9.86,9.99-16h23.65c6.62,0,12-5.38,12-12v-33.09l18.87-18.87-18.87-18.87V28c0-6.61-5.38-12-12-12h-23.65c-1.99-6.14-5.46-11.61-9.99-16h33.64c15.44,0,28,12.57,28,28v26.47l25.5,25.5Z"/>
    <circle cx="75.12" cy="48.42" r="10.5"/>
    <circle cx="135.88" cy="48.42" r="10.5"/>
    <g>
      <polygon points="266.22 .08 251.85 11.57 251.85 25.71 266.22 37.2 288.18 37.2 295.76 43.27 295.76 46.7 288.18 52.77 272.41 52.77 261.43 43.99 251.85 43.99 251.85 52.05 266.22 63.55 294.37 63.55 308.74 52.05 308.74 37.92 294.37 26.42 272.41 26.42 264.83 20.36 264.83 16.93 272.41 10.86 288.18 10.86 299.15 19.64 308.74 19.64 308.74 11.57 294.37 .08 266.22 .08"/>
      <path d="M339.99.08l-14.37,11.5v40.48l14.37,11.5h28.14l14.37-11.5V11.57L368.13.08h-28.14ZM346.18,52.77l-7.58-6.07v-29.77l7.58-6.07h15.76l7.58,6.07v29.77l-7.58,6.07h-15.76Z"/>
      <polygon points="412.36 10.86 456.27 10.86 456.27 .08 399.39 .08 399.39 63.55 412.36 63.55 412.36 37.2 445.29 37.2 445.29 26.42 412.36 26.42 412.36 10.86"/>
      <polygon points="530.04 .08 473.15 .08 473.15 10.86 495.11 10.86 495.11 63.55 508.08 63.55 508.08 10.86 530.04 10.86 530.04 .08"/>
      <path d="M251.85,96.44v63.47h42.51l14.37-11.5v-14.13l-7.63-6.1,7.63-6.11v-14.13l-14.37-11.5h-42.51ZM264.83,149.13v-15.56h23.35l7.58,6.07v3.43l-7.58,6.07h-23.35ZM264.83,122.78v-15.56h23.35l7.58,6.07v3.43l-7.58,6.07h-23.35Z"/>
      <path d="M325.62,96.44v63.47h12.98v-26.34h8.98v6.07l25.35,20.28h9.58v-8.07l-21.95-17.56v-.71h7.58l14.37-11.5v-14.13l-14.37-11.5h-42.51ZM338.6,107.22h23.35l7.58,6.07v3.43l-7.58,6.07h-23.35v-15.56Z"/>
      <polygon points="399.39 107.22 410.36 107.22 410.36 149.13 399.39 149.13 399.39 159.91 434.32 159.91 434.32 149.13 423.34 149.13 423.34 107.22 434.32 107.22 434.32 96.44 399.39 96.44 399.39 107.22"/>
      <polygon points="465.57 96.44 451.2 107.94 451.2 148.41 465.57 159.91 508.08 159.91 508.08 131.57 484.13 131.57 484.13 142.35 495.11 142.35 495.11 149.13 471.76 149.13 464.18 143.06 464.18 113.29 471.76 107.22 487.52 107.22 498.5 116 508.08 116 508.08 107.94 493.71 96.44 465.57 96.44"/>
      <path d="M550.31,96.44l-25.35,20.28v43.19h12.98v-17.56h30.93v17.56h12.98v-43.19l-25.35-20.28h-6.19ZM568.87,122.07v9.5h-30.93v-9.5l15.47-12.37,15.46,12.37Z"/>
      <path d="M598.73,96.44v63.47h42.51l14.37-11.5v-40.48l-14.37-11.5h-42.51ZM611.71,149.13v-41.91h23.35l7.58,6.07v29.77l-7.58,6.07h-23.35Z"/>
      <path d="M704.04,96.44h-6.19l-25.35,20.28v43.19h12.98v-17.56h30.93v17.56h12.98v-43.19l-25.35-20.28ZM716.41,122.07v9.5h-30.93v-9.5l15.47-12.37,15.46,12.37Z"/>
    </g>
  </g>
</svg>