<?xml version="1.0" encoding="UTF-8"?>
<svg id="_Слой_2" data-name="Слой 2" xmlns="http://www.w3.org/2000/svg" viewBox="0 0 729.38 159.92">
  <g id="_Слой_1-2" data-name="Слой 1">
    <polygon points="52.1 159.92 0 159.92 0 143.92 36.1 143.92 36.1 98.83 54.97 79.96 36.1 61.09 36.1 16 0 16 0 0 52.1 0 52.1 54.46 77.59 79.96 52.1 105.46 52.1 159.92"/>
    <circle cx="14.36" cy="48.42" r="10.5"/>
    <polygon points="112.86 159.92 61.76 159.92 61.76 143.92 96.86 143.92 96.86 98.83 115.73 79.96 96.86 61.09 96.86 16 61.76 16 61.76 0 112.86 0 112.86 54.46 138.35 79.96 112.86 105.46 112.86 159.92"/>
    <circle cx="75.12" cy="48.42" r="10.5"/>
    <polygon points="173.62 159.92 122.52 159.92 122.52 143.92 157.62 143.92 157.62 98.83 176.49 79.96 157.62 61.09 157.62 16 122.52 16 122.52 0 173.62 0 173.62 54.46 199.12 79.96 173.62 105.46 173.62 159.92"/>
    <circle cx="135.88" cy="48.42" r="10.5"/>
    <g>
      <polygon points="266.22 .08 251.85 11.58 251.85 25.71 266.22 37.21 288.18 37.21 295.76 43.27 295.76 46.7 288.18 52.77 272.41 52.77 261.43 43.99 251.85 43.99 251.85 52.05 266.22 63.55 294.37 63.55 308.74 52.05 308.74 37.92 294.37 26.43 272.41 26.43 264.83 20.36 264.83 16.93 272.41 10.86 288.18 10.86 299.15 19.64 308.74 19.64 308.74 11.58 294.37 .08 266.22 .08"/>
      <path d="M339.99.08l-14.37,11.5v40.48l14.37,11.5h28.14l14.37-11.5V11.58L368.13.08h-28.14ZM346.18,52.77l-7.58-6.07v-29.77l7.58-6.07h15.76l7.58,6.07v29.77l-7.58,6.07h-15.76Z"/>
      <polygon points="412.36 10.86 456.27 10.86 456.27 .08 399.39 .08 399.39 63.55 412.36 63.55 412.36 37.21 445.29 37.21 445.29 26.43 412.36 26.43 412.36 10.86"/>
      <polygon points="530.04 .08 473.15 .08 473.15 10.86 495.11 10.86 495.11 63.55 508.08 63.55 508.08 10.86 530.04 10.86 530.04 .08"/>
      <path d="M251.85,96.44v63.47h42.51l14.37-11.5v-14.13l-7.63-6.11,7.63-6.11v-14.13l-14.37-11.5h-42.51ZM264.83,149.13v-15.56h23.35l7.58,6.07v3.43l-7.58,6.07h-23.35ZM264.83,122.79v-15.56h23.35l7.58,6.07v3.43l-7.58,6.07h-23.35Z"/>
      <path d="M325.62,96.44v63.47h12.98v-26.34h8.98v6.07l25.35,20.28h9.58v-8.07l-21.95-17.56v-.71h7.58l14.37-11.5v-14.13l-14.37-11.5h-42.51ZM338.6,107.22h23.35l7.58,6.07v3.43l-7.58,6.07h-23.35v-15.56Z"/>
      <polygon points="399.39 107.22 410.36 107.22 410.36 149.13 399.39 149.13 399.39 159.91 434.32 159.91 434.32 149.13 423.34 149.13 423.34 107.22 434.32 107.22 434.32 96.44 399.39 96.44 399.39 107.22"/>
      <polygon points="465.57 96.44 451.2 107.94 451.2 148.42 465.57 159.91 508.08 159.91 508.08 131.57 484.13 131.57 484.13 142.35 495.11 142.35 495.11 149.13 471.76 149.13 464.18 143.06 464.18 113.29 471.76 107.22 487.52 107.22 498.5 116.01 508.08 116.01 508.08 107.94 493.71 96.44 465.57 96.44"/>
      <path d="M550.31,96.44l-25.35,20.28v43.19h12.98v-17.56h30.93v17.56h12.98v-43.19l-25.35-20.28h-6.19ZM568.87,122.07v9.5h-30.93v-9.5l15.47-12.37,15.46,12.37Z"/>
      <path d="M598.73,96.44v63.47h42.51l14.37-11.5v-40.48l-14.37-11.5h-42.51ZM611.71,149.13v-41.91h23.35l7.58,6.07v29.77l-7.58,6.07h-23.35Z"/>
      <path d="M704.04,96.44h-6.19l-25.35,20.28v43.19h12.98v-17.56h30.93v17.56h12.98v-43.19l-25.35-20.28ZM716.41,122.07v9.5h-30.93v-9.5l15.47-12.37,15.46,12.37Z"/>
    </g>
  </g>
</svg>